<?xml version="1.0" standalone="no"?>
<!DOCTYPE svg PUBLIC "-//W3C//DTD SVG 1.1//EN" "http://www.w3.org/Graphics/SVG/1.1/DTD/svg11.dtd" >
<svg xmlns="http://www.w3.org/2000/svg">
<metadata></metadata>
<defs>
<font id="FNBSansLightRegular" horiz-adv-x="1228" >
<font-face units-per-em="2048" ascent="1536" descent="-512" />
<missing-glyph horiz-adv-x="425" />
<glyph unicode="&#xfb01;" horiz-adv-x="1060" d="M72 1057q0 55 49 55h88v88q0 167 89.5 263t246.5 96q200 0 313 -129q37 -43 -2 -82q-20 -21 -41 -22.5t-41 20.5q-38 49 -88.5 76.5t-130.5 27.5q-108 0 -162.5 -59.5t-54.5 -196.5v-82h487q78 0 78 -74v-987q0 -59 -63 -59q-64 0 -64 59v950h-438l-2 -950q0 -59 -64 -59 q-63 0 -63 59v950h-88q-49 0 -49 56z" />
<glyph unicode="&#xfb02;" horiz-adv-x="1060" d="M72 1057q0 55 49 55h88v109q0 145 101.5 241.5t254.5 96.5q110 0 191 -34.5t123 -72.5q14 -14 19 -22.5t5 -24.5v-1354q0 -59 -63 -59q-64 0 -64 59v1331q-71 68 -209 68q-116 0 -173.5 -67.5t-57.5 -168.5l2 -102h223q49 0 49 -55q0 -56 -49 -56h-225v-950 q0 -59 -62 -59t-65 59v950h-88q-49 0 -49 56z" />
<glyph horiz-adv-x="0" />
<glyph horiz-adv-x="2048" />
<glyph unicode=" "  horiz-adv-x="425" />
<glyph unicode="&#x09;" horiz-adv-x="425" />
<glyph unicode="&#xa0;" horiz-adv-x="425" />
<glyph unicode="!" horiz-adv-x="497" d="M186 45v127q0 59 64 59q63 0 63 -59v-127q0 -59 -63 -59q-64 0 -64 59zM186 1464q0 60 64 60q63 0 63 -60l-12 -979q0 -47 -51 -47t-51 47z" />
<glyph unicode="&#x22;" horiz-adv-x="595" d="M90 1458q0 64 68 64q70 0 67 -64l-20 -452q0 -24 -11.5 -33.5t-35.5 -9.5q-47 0 -47 43zM371 1458q0 64 67 64q34 0 51.5 -15.5t16.5 -48.5l-21 -452q0 -24 -11.5 -33.5t-35.5 -9.5q-47 0 -47 43z" />
<glyph unicode="#" d="M39 526q0 62 55 62h205l76 354h-201q-37 0 -37 35q0 61 56 61h202l90 428q11 52 66 52q28 0 39.5 -16t5.5 -44l-86 -420h346l92 428q11 52 66 52q28 0 39.5 -16t5.5 -44l-90 -420h186q37 0 37 -34q0 -62 -55 -62h-191l-76 -354h187q37 0 37 -35q0 -61 -56 -61h-188 l-90 -453q-10 -51 -66 -51q-28 0 -39.5 15.5t-5.5 43.5l90 445h-350l-92 -453q-10 -51 -66 -51q-28 0 -39.5 15.5t-5.5 43.5l93 445h-203q-37 0 -37 34zM410 588h350l76 354h-351z" />
<glyph unicode="$" d="M160 338q-20 62 41 82q69 23 84 -35q26 -100 114 -164.5t222 -64.5q152 0 232.5 67.5t80.5 188.5q0 46 -15.5 83.5t-39.5 64.5t-69.5 54t-89 46.5t-114.5 46.5q-84 32 -135.5 54.5t-109 58t-88.5 73.5t-51.5 93.5t-20.5 125.5q0 133 100 229t256 115v139q0 64 64 64 q33 0 48 -14.5t15 -49.5v-139q134 -11 235 -85.5t136 -166.5q22 -59 -41 -82q-63 -22 -84 35q-30 81 -108.5 133.5t-198.5 52.5q-128 0 -207.5 -63.5t-79.5 -159.5q0 -45 14 -81t36.5 -62t68 -53t89.5 -47t120 -50q70 -28 113.5 -47.5t96.5 -48t85 -57t61 -66.5t42 -85 t13 -103q0 -82 -32 -151t-87.5 -115t-124.5 -74.5t-147 -38.5v-143q0 -35 -15 -49.5t-48 -14.5q-64 0 -64 64v141q-147 14 -253 98t-144 201z" />
<glyph unicode="%" horiz-adv-x="1470" d="M98 995v308q0 111 67.5 167t186.5 56q120 0 189 -56t69 -167v-308q0 -110 -68.5 -163.5t-189.5 -53.5q-120 0 -187 53.5t-67 163.5zM217 995q0 -121 135 -121q137 0 137 121v308q0 124 -137 124q-135 0 -135 -124v-308zM287 10q-11 16 2 41l747 1424q21 43 78 43 q34 0 45 -16.5t-2 -41.5l-747 -1423q-21 -43 -78 -43q-34 0 -45 16zM862 203v317q0 111 67.5 168t186.5 57t187.5 -57t68.5 -168v-317q0 -111 -68.5 -166t-189.5 -55q-118 0 -185 55t-67 166zM979 203q0 -123 135 -123q139 0 139 123v317q0 66 -39 97.5t-100 31.5 q-59 0 -97 -31.5t-38 -97.5v-317z" />
<glyph unicode="&#x26;" horiz-adv-x="1224" d="M72 369q0 63 15 117.5t38.5 96t68.5 87t88.5 80t114.5 86.5q-127 145 -173 222.5t-46 168.5q0 129 91.5 214t242.5 85q149 0 237.5 -86.5t88.5 -218.5q0 -65 -18 -118t-60.5 -103.5t-83.5 -86.5t-115 -94l367 -424q28 78 28 217v33q0 60 62 60q63 0 63 -60v-37 q0 -187 -65 -317l203 -234q8 -9 9.5 -19.5t-3.5 -20.5t-21 -16.5t-41 -6.5q-32 0 -47.5 7.5t-36.5 31.5l-133 155q-86 -110 -190.5 -161.5t-243.5 -51.5q-208 0 -324 111t-116 283zM201 371q0 -126 86 -205.5t223 -79.5q113 0 205 49.5t151 147.5l-397 469 q-152 -111 -210 -189.5t-58 -191.5zM303 1225q0 -73 35 -132t130 -170q13 -14 19 -22q53 38 83.5 62t62 54.5t46.5 57.5t24.5 61.5t9.5 75.5q0 91 -52.5 149t-148.5 58q-99 0 -154 -52.5t-55 -141.5z" />
<glyph unicode="'" horiz-adv-x="311" d="M90 1458q0 64 68 64q70 0 67 -64l-20 -452q0 -24 -11.5 -33.5t-35.5 -9.5q-47 0 -47 43z" />
<glyph unicode="(" horiz-adv-x="694" d="M147 662q0 154 28 297.5t74 252.5t87 181.5t86 132.5q32 43 76 8q42 -31 16 -68q-94 -136 -166 -349t-72 -458q0 -128 22 -254.5t58.5 -229t76 -182t81.5 -140.5q26 -37 -16 -68q-44 -35 -76 8q-44 59 -85.5 133t-87.5 184t-74 254t-28 298z" />
<glyph unicode=")" horiz-adv-x="694" d="M180 -147q42 61 81.5 140.5t76 182t58.5 229t22 254.5q0 245 -72 458t-166 349q-25 37 17 68q21 18 39 17t36 -25q44 -59 85.5 -133t87.5 -184t74 -254t28 -298t-28 -297.5t-74 -252.5t-87 -181.5t-86 -132.5q-18 -24 -36 -25t-39 17q-42 31 -17 68z" />
<glyph unicode="*" horiz-adv-x="743" d="M84 1309q19 55 70 32l182 -81l-19 204q-3 28 12.5 42t43.5 14q61 0 55 -56l-18 -204l180 81q50 23 69 -32q20 -58 -34 -72l-191 -47l137 -162q35 -44 -12 -76q-46 -36 -76 13l-110 180l-111 -180q-30 -49 -76 -13q-47 32 -12 76l137 162l-192 47q-55 14 -35 72z" />
<glyph unicode="+" d="M90 635q0 55 51 55h414v412q0 55 59 55q30 0 45 -12.5t15 -42.5v-412h413q52 0 52 -55t-52 -55h-413v-424q0 -56 -60 -56q-59 0 -59 56v424h-414q-51 0 -51 55z" />
<glyph unicode="," horiz-adv-x="374" d="M51.5 -190q-5.5 19 9.5 40q57 61 73 133.5t16 227.5q0 59 63 59t63 -59q0 -273 -157 -418q-18 -16 -40 -9t-27.5 26z" />
<glyph unicode="-" horiz-adv-x="890" d="M115 610q0 56 51 56h559q51 0 51 -56q0 -53 -51 -53h-559q-51 0 -51 53z" />
<glyph unicode="." horiz-adv-x="374" d="M125 51v162q0 59 63 59q64 0 64 -59v-162q0 -59 -64 -59q-63 0 -63 59z" />
<glyph unicode="/" horiz-adv-x="757" d="M14 51l611 1424q12 24 29.5 33.5t47.5 9.5q34 0 45 -16.5t-2 -41.5l-610 -1423q-21 -43 -78 -43q-67 0 -43 57z" />
<glyph unicode="0" d="M147 422v645q0 218 119 332t348 114q231 0 350 -112.5t119 -331.5v-647q0 -215 -120 -328.5t-349 -113.5t-348 112t-119 330zM283 426q0 -164 79 -246t252 -82t253.5 80.5t80.5 247.5v637q0 330 -334 330q-173 0 -252 -83.5t-79 -246.5v-637z" />
<glyph unicode="1" d="M236 1257q-12 55 38 66q29 7 79 18.5t76 18t58.5 17t52.5 22.5t33 28q2 3 10.5 13.5t10.5 12.5t8.5 9.5t9.5 9.5t9.5 6t12 5t13.5 2.5t17 1.5q65 0 65 -45v-1325h264q56 0 56 -62q0 -55 -56 -55h-665q-56 0 -56 55q0 62 56 62h268v1147l-299 -45q-52 -8 -61 38z" />
<glyph unicode="2" d="M154 98v47q0 137 39.5 231.5t141 180t288.5 176.5q110 54 175.5 97.5t99 88.5t43 85.5t9.5 103.5q0 129 -83.5 207t-219.5 78q-132 0 -208 -50.5t-124 -154.5q-13 -30 -32.5 -37t-46.5 4q-61 24 -37 78q121 280 446 280q205 0 322.5 -116.5t117.5 -292.5 q0 -169 -81.5 -265t-321.5 -214q-127 -62 -202.5 -111t-119 -102.5t-57.5 -105.5t-14 -130v-59h741q55 0 55 -58q0 -59 -55 -59h-772q-104 0 -104 98z" />
<glyph unicode="3" d="M131 272q-24 54 37 78q63 24 82 -33q36 -100 122.5 -159.5t225.5 -59.5q148 0 241 78t93 223v23q0 140 -87 220.5t-247 80.5h-59q-56 0 -56 57q0 60 56 60h67q123 0 204 73t81 187v33q0 260 -285 260q-114 0 -183 -49t-114 -150q-13 -30 -33 -37t-47 4q-60 24 -36 78 q53 129 156.5 201.5t254.5 72.5q208 0 314 -98.5t106 -279.5v-35q0 -110 -73.5 -202t-178.5 -114q56 -7 106 -30.5t94 -64.5t69.5 -109t25.5 -154v-25q0 -187 -131.5 -304t-335.5 -117q-100 0 -181.5 25.5t-136.5 70t-91 92t-60 104.5z" />
<glyph unicode="4" d="M117 479q0 34 28 72l666 930q34 47 90 4q24 -20 27.5 -38.5t-15.5 -47.5l-628 -873h479v275q0 61 65 61q68 0 68 -61v-275h168q55 0 55 -59q0 -29 -12.5 -43t-42.5 -14h-168v-363q0 -61 -68 -61q-65 0 -65 61v363h-584q-63 0 -63 69z" />
<glyph unicode="5" d="M150 270q-22 59 38 82q61 23 80 -30q34 -97 119.5 -160.5t218.5 -63.5q156 0 242 95t86 266v47q0 172 -77 261t-226 89q-198 0 -295 -154q-14 -23 -35.5 -27t-48.5 7q-30 10 -40.5 27t-8.5 49l49 655q3 46 26 65t68 19h576q55 0 55 -61q0 -29 -12.5 -42.5t-42.5 -13.5 h-547l-43 -549h4q59 67 134 103.5t198 36.5q187 0 294 -120.5t107 -346.5v-47q0 -220 -125 -348.5t-336 -128.5q-100 0 -181.5 26t-135 70t-87 91.5t-54.5 102.5z" />
<glyph unicode="6" d="M143 451v501q0 271 129.5 416t368.5 145q160 0 266 -76.5t152 -185.5q23 -62 -37 -84t-84 35q-79 191 -297 191q-182 0 -271.5 -105t-90.5 -336v-178l2 -2q41 86 143 142.5t229 56.5q200 0 321.5 -120.5t121.5 -334.5v-78q0 -208 -134 -333t-327 -125q-230 0 -361 131.5 t-131 339.5zM281 449q0 -156 91.5 -253.5t266.5 -97.5q142 0 233 97.5t91 253.5v55q0 166 -81 259t-233 93q-163 0 -265.5 -97t-102.5 -257v-53z" />
<glyph unicode="7" d="M150 1436q0 61 55 61h776q63 0 63 -70q0 -43 -24 -75q-151 -215 -274.5 -440t-207 -460t-83.5 -403q0 -63 -68 -63t-68 63q0 133 53 309.5t140.5 357.5t184 346.5t200.5 315.5h-692q-55 0 -55 58z" />
<glyph unicode="8" d="M129 385v51q0 265 283 367q-45 15 -83.5 39t-73.5 60.5t-55 92t-20 123.5v37q0 171 116 264.5t318 93.5t318.5 -93.5t116.5 -264.5v-37q0 -68 -20 -123.5t-55 -92t-72.5 -60.5t-82.5 -39q281 -102 281 -367v-51q0 -188 -130 -296.5t-356 -108.5q-225 0 -355 108.5 t-130 296.5zM264 395q0 -142 91.5 -219.5t258.5 -77.5q168 0 259.5 77.5t91.5 219.5v41q0 146 -92.5 223.5t-258.5 77.5t-258 -77.5t-92 -223.5v-41zM313 1104q0 -115 83.5 -181.5t217.5 -66.5t217.5 66.5t83.5 181.5v45q0 124 -80.5 185t-220.5 61t-220.5 -61t-80.5 -185 v-45z" />
<glyph unicode="9" d="M119 991v64q0 196 129 327t346 131q222 0 345.5 -131t123.5 -346v-544q0 -126 -37 -225.5t-102.5 -161t-150.5 -93.5t-185 -32q-141 0 -245.5 50t-164.5 136q-40 54 15 90q52 39 90 -12q104 -146 303 -146q59 0 108.5 12t93.5 40t75 71t49 109.5t18 150.5v213 q-45 -87 -141 -134.5t-220 -47.5q-208 0 -329 132t-121 347zM254 991q0 -165 84 -264.5t248 -99.5q154 0 249 90t95 235v82q0 171 -89.5 265t-246.5 94q-151 0 -245.5 -89.5t-94.5 -252.5v-60z" />
<glyph unicode=":" horiz-adv-x="409" d="M139 51v162q0 59 64 59q63 0 63 -59v-162q0 -59 -63 -59q-64 0 -64 59zM139 905v162q0 59 64 59q63 0 63 -59v-162q0 -59 -63 -59q-64 0 -64 59z" />
<glyph unicode=";" horiz-adv-x="411" d="M51.5 -190q-5.5 19 9.5 40q57 61 73 133.5t16 227.5q0 59 63 59t63 -59q0 -273 -157 -418q-18 -16 -40 -9t-27.5 26zM147 903v162q0 59 64 59q63 0 63 -59v-162q0 -59 -63 -59q-64 0 -64 59z" />
<glyph unicode="&#x3c;" d="M229 633q0 31 13.5 50t48.5 32l616 225q29 10 48.5 -5.5t19.5 -45.5q0 -28 -12.5 -45t-44.5 -27l-535 -184l535 -182q32 -10 44.5 -27t12.5 -45q0 -30 -19.5 -45.5t-48.5 -5.5l-616 225q-34 13 -48 31.5t-14 48.5z" />
<glyph unicode="=" d="M223 487q0 58 51 58h680q52 0 52 -58q0 -53 -52 -53h-680q-51 0 -51 53zM223 780q0 58 51 58h680q52 0 52 -58q0 -53 -52 -53h-680q-51 0 -51 53z" />
<glyph unicode="&#x3e;" d="M254 379q0 28 12.5 45t44.5 27l535 182l-535 184q-32 10 -44.5 27t-12.5 45q0 30 19.5 45.5t48.5 5.5l616 -225q34 -13 47.5 -31.5t13.5 -50.5q0 -30 -13.5 -48.5t-47.5 -31.5l-616 -225q-29 -10 -48.5 5.5t-19.5 45.5z" />
<glyph unicode="?" horiz-adv-x="847" d="M70 1395q61 64 147.5 102.5t188.5 38.5q174 0 269 -102t95 -258q0 -79 -36.5 -150.5t-88 -127t-103 -110t-88 -121t-36.5 -137.5v-34q0 -58 -62 -58q-61 0 -61 58v39q0 79 35.5 151t86 128t101 109.5t86 117t35.5 128.5q0 117 -62 184.5t-186 67.5q-139 0 -235 -106 q-37 -39 -80 -2q-44 41 -6 82zM293 51v115q0 59 63 59q64 0 64 -59v-115q0 -59 -64 -59q-63 0 -63 59z" />
<glyph unicode="@" horiz-adv-x="1748" d="M147 453v278q0 137 51.5 254.5t145 203t234 134.5t309.5 49q357 0 537 -148.5t180 -418.5v-332q0 -89 -28.5 -159.5t-93.5 -116t-159 -45.5q-46 0 -85.5 12.5t-63 30t-40 35t-22.5 30.5l-6 12q-107 -127 -283 -127q-111 0 -192.5 72.5t-81.5 192.5v24q0 68 26 116.5 t85.5 83.5t162.5 49.5t250 8.5v27q0 123 -49.5 180t-151.5 57q-79 0 -126.5 -35t-75.5 -100q-16 -42 -62 -22q-45 20 -28 61q84 193 294 193q314 0 314 -332v-348q0 -48 35 -88.5t104 -40.5q76 0 124 59t48 156v338q0 471 -612 471q-157 0 -278.5 -43.5t-195 -119.5 t-110.5 -173.5t-37 -212.5v-256q0 -88 19.5 -166t63.5 -147.5t110 -119.5t165 -79t222 -29q98 0 189 15.5t133 29t104 37.5q46 17 63 -33q15 -44 -28 -61q-210 -90 -459 -90q-156 0 -280 38.5t-201 100.5t-128 146.5t-71.5 170t-20.5 177.5zM662 412q0 -75 49.5 -120.5 t132.5 -45.5q144 0 229 119v237q-125 3 -206.5 -6.5t-126 -33.5t-61.5 -56.5t-17 -81.5v-12z" />
<glyph unicode="A" horiz-adv-x="1120" d="M35 57l442 1383q12 35 32 49t54 14q64 0 84 -65l434 -1377q3 -12 3 -23q0 -20 -10 -32q-16 -20 -50 -20q-32 0 -51 14.5t-29 48.5l-125 416h-526l-125 -418q-19 -61 -80 -61q-32 0 -47 20q-9 12 -9 29q0 10 3 22zM328 578h456l-223 751z" />
<glyph unicode="B" horiz-adv-x="1171" d="M178 84v1329q0 84 94 84h340q200 0 307 -96t107 -264v-54q0 -116 -63.5 -203.5t-161.5 -107.5q110 -20 186 -112.5t76 -229.5v-53q0 -167 -108.5 -272t-311.5 -105h-371q-94 0 -94 84zM313 117h299q79 0 134 13.5t98 47.5t63.5 95.5t20.5 152.5q0 134 -79.5 209.5 t-227.5 75.5h-308v-594zM313 827h301q123 0 202 64.5t79 193.5v33q0 120 -72.5 191t-234.5 71h-275v-553z" />
<glyph unicode="C" horiz-adv-x="1175" d="M158 444v613q0 214 134.5 335t354.5 121q165 0 280 -74.5t169 -215.5q6 -15 6 -28q0 -36 -47 -54q-18 -6 -32 -6q-37 0 -52 41q-39 107 -122.5 162t-201.5 55q-164 0 -259 -85.5t-95 -252.5v-611q0 -163 85 -254.5t265 -91.5q121 0 204.5 61.5t123.5 159.5q15 41 52 41 q14 0 32 -6q47 -18 47 -54q0 -13 -6 -28q-45 -122 -166 -208.5t-289 -86.5q-483 0 -483 467z" />
<glyph unicode="D" horiz-adv-x="1292" d="M178 84v1329q0 84 94 84h396q218 0 341.5 -133.5t123.5 -345.5v-539q0 -212 -124.5 -345.5t-340.5 -133.5h-396q-94 0 -94 84zM313 117h322q97 0 168.5 28t113.5 79t62 116.5t20 146.5v523q0 81 -20.5 146.5t-63 116.5t-113.5 79t-167 28h-322v-1263z" />
<glyph unicode="E" horiz-adv-x="1034" d="M178 84v1329q0 84 94 84h609q55 0 55 -61q0 -58 -55 -58h-568v-553h516q56 0 56 -59q0 -57 -56 -57h-516v-592h570q55 0 55 -58q0 -59 -55 -59h-611q-94 0 -94 84z" />
<glyph unicode="F" horiz-adv-x="964" d="M178 49v1364q0 84 94 84h582q55 0 55 -59q0 -58 -55 -58h-541v-589h494q55 0 55 -58q0 -29 -12.5 -43t-42.5 -14h-494v-627q0 -34 -16.5 -48.5t-50.5 -14.5q-68 0 -68 63z" />
<glyph unicode="G" horiz-adv-x="1277" d="M158 434v594q0 240 135 362.5t369 122.5q368 0 479 -290q6 -15 6 -28q0 -36 -47 -54q-18 -6 -32 -6q-37 0 -52 41q-40 109 -123.5 163t-220.5 54q-89 0 -155 -17.5t-118 -58.5t-79 -116.5t-27 -184.5v-572q0 -346 369 -346q51 0 98.5 8.5t97 31t86 57.5t59.5 93t23 132 v219h-291q-30 0 -42.5 14t-12.5 43q0 60 55 60h330q94 0 94 -84v-252q0 -203 -142.5 -321.5t-369.5 -118.5q-230 0 -359.5 119t-129.5 335z" />
<glyph unicode="H" horiz-adv-x="1357" d="M178 49v1391q0 63 68 63q34 0 50.5 -14.5t16.5 -48.5v-625h731v625q0 63 68 63t68 -63v-1391q0 -63 -68 -63t-68 63v649h-731v-649q0 -34 -16.5 -48.5t-50.5 -14.5q-68 0 -68 63z" />
<glyph unicode="I" horiz-adv-x="512" d="M188 49v1391q0 63 68 63t68 -63v-1391q0 -63 -68 -63t-68 63z" />
<glyph unicode="J" horiz-adv-x="860" d="M41 115q-20 21 -20 42q0 24 26 48q22 22 44 22l44 -22q95 -99 219 -99q234 0 234 277v1057q0 63 67 63q68 0 68 -63v-1049q0 -204 -97 -307.5t-270 -103.5q-191 0 -315 135z" />
<glyph unicode="K" horiz-adv-x="1107" d="M178 49v1391q0 63 68 63q34 0 50.5 -14.5t16.5 -48.5v-699l561 707q25 31 44.5 41t48.5 10q48 0 60.5 -26.5t-13.5 -57.5l-441 -541l476 -804q14 -21 14 -39q0 -11 -5 -20q-13 -25 -61 -25q-23 0 -35.5 2t-28 14t-28.5 35l-418 735l-174 -217v-506q0 -34 -16.5 -48.5 t-50.5 -14.5q-68 0 -68 63z" />
<glyph unicode="L" horiz-adv-x="980" d="M178 84v1356q0 63 68 63q34 0 50.5 -14.5t16.5 -48.5v-1323h611q55 0 55 -60q0 -29 -12.5 -43t-42.5 -14h-652q-94 0 -94 84z" />
<glyph unicode="M" horiz-adv-x="1591" d="M178 45v1368q0 50 23.5 70t68.5 20q59 0 84 -19t43 -71l258 -788q92 -277 140 -484h4q48 205 139 484q205 637 256 788q18 52 43 71t84 19q45 0 68.5 -20t23.5 -70v-1368q0 -59 -63 -59q-64 0 -64 59v948q0 279 6 346h-2l-418 -1290q-10 -33 -28.5 -46t-50.5 -13 q-60 0 -78 61l-418 1292q6 -63 6 -208q0 -41 1 -123.5t1 -124.5v-842q0 -59 -63 -59q-64 0 -64 59z" />
<glyph unicode="N" horiz-adv-x="1376" d="M178 45v1368q0 90 96 90q48 0 74.5 -14.5t50.5 -58.5l430 -797q129 -236 242 -494h6q-12 258 -12 410v891q0 63 65 63q33 0 49.5 -14.5t16.5 -48.5v-1370q0 -84 -90 -84q-45 0 -70 14t-47 55l-471 879q-82 152 -215 424h-6q10 -161 10 -383v-930q0 -59 -63 -59 q-66 0 -66 59z" />
<glyph unicode="O" horiz-adv-x="1349" d="M158 473v545q0 228 136.5 361.5t381.5 133.5t380.5 -133t135.5 -362v-545q0 -229 -136 -362.5t-380 -133.5q-245 0 -381.5 134t-136.5 362zM293 473q0 -179 101 -277t282 -98t281 98t100 277v545q0 179 -100 277t-281 98t-282 -98t-101 -277v-545z" />
<glyph unicode="P" horiz-adv-x="1124" d="M178 49v1364q0 84 94 84h324q120 0 206 -29.5t136 -86.5t73 -131.5t23 -172.5v-53q0 -204 -102.5 -315t-337.5 -111h-281v-549q0 -34 -16.5 -48.5t-50.5 -14.5q-68 0 -68 63zM313 713h273q176 0 245.5 76.5t69.5 236.5v49q0 79 -15 133t-50.5 94t-97.5 59t-154 19h-271 v-667z" />
<glyph unicode="Q" horiz-adv-x="1349" d="M158 473v545q0 228 136.5 361.5t381.5 133.5t380.5 -133t135.5 -362v-545q0 -150 -61 -262t-175 -172l162 -293q13 -26 -2 -44.5t-49 -18.5q-31 0 -48.5 12t-33.5 41l-143 262q-86 -21 -166 -21q-245 0 -381.5 134t-136.5 362zM293 473q0 -179 101 -277t282 -98 q44 0 104 11l-159 294q-13 26 2 45t49 19q31 0 48.5 -12t33.5 -41l143 -264q160 96 160 323v545q0 179 -100 277t-281 98t-282 -98t-101 -277v-545z" />
<glyph unicode="R" horiz-adv-x="1157" d="M178 49v1364q0 84 94 84h318q432 0 432 -399v-72q0 -154 -70.5 -257t-206.5 -136l302 -572q8 -16 8.5 -29.5t-8.5 -23.5q-17 -22 -60 -22q-31 0 -50 13.5t-36 47.5l-295 567h-293v-565q0 -34 -16.5 -48.5t-50.5 -14.5q-68 0 -68 63zM313 729h285q80 0 138 23.5t90.5 65.5 t47.5 93.5t15 114.5v68q0 143 -70 214.5t-244 71.5h-262v-651z" />
<glyph unicode="S" horiz-adv-x="1040" d="M70 270q-6 15 -6 28q0 36 47 54q18 7 33 7q37 0 51 -42q35 -101 120 -160t213 -59q132 0 214.5 66.5t82.5 200.5q0 44 -6.5 78.5t-24.5 64.5t-39 53t-60.5 49.5t-79 48t-103.5 52.5q-51 25 -80 40t-71 38t-66 39.5t-55.5 40.5t-49 44.5t-37 48.5t-29 56.5t-16 63 t-6.5 73.5q0 161 113.5 259.5t304.5 98.5q159 0 266 -76t158 -200q6 -15 6 -28q0 -37 -47 -54q-18 -6 -32 -6q-37 0 -52 41q-78 205 -299 205q-287 0 -287 -240q0 -56 18 -98.5t71 -83.5t87 -61t128 -68q21 -11 32 -17q58 -30 91.5 -48t80.5 -47.5t74 -53.5t58 -58.5t47 -70 t27 -82.5t11 -103q0 -175 -117 -279q-118 -105 -311 -105q-181 0 -297 79t-163 211z" />
<glyph unicode="T" horiz-adv-x="1001" d="M-18 1438q0 59 55 59h926q55 0 55 -59q0 -58 -55 -58h-398v-1331q0 -34 -16 -48.5t-49 -14.5q-68 0 -68 63v1331h-395q-55 0 -55 58z" />
<glyph unicode="U" horiz-adv-x="1292" d="M160 397v1043q0 63 67 63q68 0 68 -63v-1045q0 -143 88.5 -220t259.5 -77q172 0 265 77.5t93 219.5v1045q0 63 66 63q33 0 49.5 -14.5t16.5 -48.5v-1043q0 -87 -29.5 -161t-87.5 -132t-153.5 -91t-219.5 -33t-219 33t-151.5 91t-84.5 131.5t-28 161.5z" />
<glyph unicode="V" horiz-adv-x="1136" d="M55 1427q-3 12 -3 22q0 19 10 33q16 21 51 21q32 0 51 -14.5t29 -48.5l204 -713q86 -295 166 -600h6q63 240 168 600l215 713q19 63 78 63q34 0 50 -20q9 -12 9 -29q0 -11 -4 -24l-405 -1354q-26 -90 -117 -90t-117 90z" />
<glyph unicode="W" horiz-adv-x="1689" d="M49 1427q-3 12 -3 23q0 19 10 32q16 21 50 21q65 0 78 -63l154 -680q92 -389 131 -633h4q28 180 127 629l154 684q8 36 30 49.5t58 13.5q71 0 86 -65l159 -678q83 -332 134 -633h4q22 125 73 362t58 273l149 678q13 63 78 63q33 0 49 -21q10 -14 11 -33q0 -10 -3 -22 l-317 -1364q-18 -77 -100 -77q-81 0 -99 77l-168 742q-73 308 -114 508h-2q-54 -281 -105 -508l-168 -742q-18 -77 -98 -77q-82 0 -100 77z" />
<glyph unicode="X" horiz-adv-x="1130" d="M58 12q-8 12 -8 25q0 16 11 35l420 684l-401 661q-11 19 -11 36q-1 13 7 25q16 26 53 25q49 0 72 -41l358 -600l359 600q23 41 71 41q37 1 53 -25q7 -12 7 -25q0 -16 -11 -36l-403 -663l434 -682q12 -19 12 -36q0 -12 -8 -24q-17 -26 -53 -26q-49 0 -72 41l-389 624 l-377 -624q-23 -41 -71 -41q-36 0 -53 26z" />
<glyph unicode="Y" horiz-adv-x="1062" d="M32 1478q17 25 52 25q49 0 72 -41l376 -712l377 712q23 41 72 41q35 0 51 -27q6 -11 6 -25q0 -18 -10 -38l-430 -788v-576q0 -63 -68 -63q-67 0 -67 63v574l-428 794q-10 20 -10 36q0 14 7 25z" />
<glyph unicode="Z" horiz-adv-x="1087" d="M59 70q0 30 27 75l780 1235h-708q-56 0 -56 60q0 57 56 57h805q63 0 63 -70q0 -30 -27 -75l-780 -1235h762q55 0 55 -60q0 -29 -12.5 -43t-42.5 -14h-858q-64 0 -64 70z" />
<glyph unicode="[" horiz-adv-x="632" d="M174 -195v1672q0 84 94 84h234q49 0 49 -56q0 -26 -11 -38.5t-38 -12.5h-199v-1626h199q27 0 38 -12.5t11 -38.5q0 -56 -49 -56h-234q-94 0 -94 84z" />
<glyph unicode="\" horiz-adv-x="755" d="M10 1501.5q11 16.5 45 16.5q57 0 78 -43l610 -1424q24 -57 -43 -57q-30 0 -47.5 9.5t-29.5 33.5l-611 1423q-13 25 -2 41.5z" />
<glyph unicode="]" horiz-adv-x="632" d="M84 -223q0 26 11 38.5t38 12.5h199v1626h-199q-27 0 -38 12.5t-11 38.5q0 56 49 56h234q94 0 94 -84v-1672q0 -84 -94 -84h-234q-49 0 -49 56z" />
<glyph unicode="^" horiz-adv-x="1036" d="M197 813l235 617q13 34 31.5 47.5t50.5 13.5q30 0 48.5 -13.5t31.5 -47.5l235 -617q10 -29 -5.5 -48.5t-45.5 -19.5q-28 0 -44.5 13t-26.5 45l-193 534l-195 -534q-10 -32 -26.5 -45t-44.5 -13q-30 0 -45.5 19.5t-5.5 48.5z" />
<glyph unicode="_" horiz-adv-x="794" d="M0 -133h795v-92h-795v92z" />
<glyph unicode="`" horiz-adv-x="663" d="M194 1529q11 23 46 23q27 0 42 -7.5t29 -28.5l160 -236q15 -23 4.5 -39t-39.5 -16q-30 0 -59 37l-172 215q-22 29 -11 52z" />
<glyph unicode="a" horiz-adv-x="1017" d="M88 305v8q0 131 64.5 206.5t210.5 106.5q105 22 263 22q61 0 130 -3v80q0 156 -62 228.5t-188 72.5q-172 0 -244 -166q-16 -36 -45 -36q-13 0 -29 7q-40 17 -40 48q0 12 6 26q101 232 358 232q186 0 278.5 -107.5t92.5 -306.5v-678q0 -59 -64 -59q-61 0 -61 59v82 q-149 -145 -342 -145q-139 0 -233.5 88t-94.5 235zM215 307q0 -93 65 -154t164 -61q172 0 312 144v313q-53 2 -100 2q-219 0 -319 -42q-122 -51 -122 -187v-15z" />
<glyph unicode="b" horiz-adv-x="1114" d="M158 45v1444q0 59 63 59q64 0 64 -59v-561q19 34 50 68.5t73.5 67t100.5 53t120 20.5q180 0 276 -109.5t96 -320.5v-281q0 -207 -113.5 -325.5t-287.5 -118.5q-122 0 -203 49t-114 114v-100q0 -59 -62 -59q-63 0 -63 59zM285 371q0 -123 83.5 -201t215.5 -78 q136 0 213 84t77 262v252q0 332 -262 332q-130 0 -228.5 -100.5t-98.5 -245.5v-305z" />
<glyph unicode="c" horiz-adv-x="974" d="M111 408v307q0 203 116 312.5t299 109.5q136 0 232.5 -66t134.5 -174q5 -13 5 -24q0 -34 -44 -52q-17 -6 -31 -6q-35 0 -47 39q-24 74 -89 123t-163 49q-129 0 -208.5 -83t-79.5 -247v-272q0 -164 76.5 -248t209.5 -84q191 0 254 154q14 37 46 37q14 0 32 -7 q42 -15 42 -48q0 -11 -5 -25q-85 -221 -375 -221q-181 0 -293 110t-112 316z" />
<glyph unicode="d" horiz-adv-x="1118" d="M111 397v310q0 196 107.5 313t281.5 117q119 0 205.5 -47t128.5 -117v516q0 59 63 59q64 0 64 -59v-1444q0 -59 -64 -59q-31 0 -46 13.5t-15 45.5v111q-43 -71 -128 -122.5t-202 -51.5q-178 0 -286.5 109.5t-108.5 305.5zM240 418q0 -164 80.5 -245t222.5 -81 q124 0 207.5 84t83.5 199v358q0 132 -88.5 212.5t-221.5 80.5q-129 0 -206.5 -88.5t-77.5 -257.5v-262z" />
<glyph unicode="e" horiz-adv-x="1038" d="M111 406v317q0 188 117 301t298 113q195 0 307.5 -113t112.5 -326v-104q0 -84 -92 -84h-614v-98q0 -148 74.5 -234t222.5 -86q203 0 272 141q18 37 50 37q13 0 28 -6q43 -16 43 -49q0 -12 -6 -27q-90 -206 -387 -206q-202 0 -314 114.5t-112 309.5zM240 614h579v91 q0 155 -77 238t-218 83q-125 0 -204.5 -80t-79.5 -227v-105z" />
<glyph unicode="f" horiz-adv-x="665" d="M72 1057q0 55 49 55h88v141q0 152 76 233t202 81q139 0 218 -86q18 -20 18 -39q0 -22 -21 -43q-21 -23 -43 -23q-19 0 -38 19q-59 59 -134 59q-72 0 -111.5 -49.5t-39.5 -147.5v-145h282q50 0 50 -55q0 -56 -50 -56h-282v-950q0 -59 -64 -59q-63 0 -63 59v950h-88 q-49 0 -49 56z" />
<glyph unicode="g" horiz-adv-x="1052" d="M68 -109q0 115 54.5 196.5t156.5 119.5q-103 49 -103 137q0 94 103 143q-80 42 -124 115t-44 170v8q0 171 108.5 264t288.5 93q159 0 262 -68q109 72 207 72q49 0 49 -58q0 -55 -49 -55q-80 0 -154 -6q84 -90 84 -227v-25q0 -157 -108 -245.5t-291 -88.5q-82 0 -150 21 q-71 -29 -71 -84q0 -38 35.5 -57t105.5 -31l231 -37q184 -31 259 -106t75 -232q0 -151 -119.5 -249.5t-345.5 -98.5q-225 0 -342.5 86t-117.5 243zM188 -88q0 -119 85.5 -182.5t256.5 -63.5q170 0 255 62.5t85 181.5q0 51 -9 85t-34.5 63t-73 48t-122.5 31q-17 3 -109 18 t-141 23q-95 -31 -144 -101.5t-49 -164.5zM229 780q0 -123 73.5 -182t205.5 -59q278 0 278 241q0 126 -73.5 190t-204.5 64q-130 0 -204.5 -64t-74.5 -190z" />
<glyph unicode="h" horiz-adv-x="1101" d="M158 51v1438q0 59 63 59q64 0 64 -59v-551q139 199 358 199q158 0 238 -96.5t80 -266.5v-723q0 -59 -64 -59q-63 0 -63 59v682q0 152 -53.5 221.5t-170.5 69.5q-97 0 -186 -65t-139 -162v-746q0 -59 -64 -59q-63 0 -63 59z" />
<glyph unicode="i" horiz-adv-x="442" d="M158 51v1016q0 59 63 59q64 0 64 -59v-1016q0 -59 -64 -59q-63 0 -63 59zM158 1341v142q0 59 63 59q64 0 64 -59v-142q0 -59 -64 -59q-63 0 -63 59z" />
<glyph unicode="j" horiz-adv-x="458" d="M4 -408q-19 22 -19 43q0 23 25 43q83 64 123.5 149.5t40.5 244.5v995q0 59 64 59q63 0 63 -59v-995q0 -86 -14 -159.5t-33.5 -122t-50.5 -92t-55 -67.5t-58 -51q-23 -17 -40 -17q-3 0 -6 1q-19 3 -40 28zM174 1341v142q0 59 64 59q63 0 63 -59v-142q0 -59 -63 -59 q-64 0 -64 59z" />
<glyph unicode="k" horiz-adv-x="923" d="M158 51v1438q0 59 63 59q64 0 64 -59v-889l434 479q24 29 42 38t48 9q45 0 56 -25t-13 -50l-342 -373l381 -606q14 -19 14 -36q1 -10 -5 -20q-14 -24 -58 -24q-30 0 -49 9t-39 40l-340 547l-129 -135v-402q0 -59 -64 -59q-63 0 -63 59z" />
<glyph unicode="l" horiz-adv-x="442" d="M158 51v1438q0 59 63 59q64 0 64 -59v-1438q0 -59 -64 -59q-63 0 -63 59z" />
<glyph unicode="m" horiz-adv-x="1636" d="M158 51v1018q0 57 61 57q62 0 62 -57v-129q47 82 131 139.5t182 57.5q113 0 183 -58t95 -143q58 95 146 148t182 53q135 0 214 -86.5t79 -231.5v-768q0 -59 -63 -59q-64 0 -64 59v725q0 246 -190 246q-88 0 -163.5 -59t-121.5 -160v-752q0 -59 -64 -59q-63 0 -63 59v733 q0 238 -191 238q-96 0 -172.5 -62.5t-115.5 -156.5v-752q0 -59 -64 -59q-63 0 -63 59z" />
<glyph unicode="n" horiz-adv-x="1101" d="M158 51v1018q0 57 61 57q62 0 62 -57v-131q67 91 159.5 145t204.5 54q158 0 237 -96.5t79 -264.5v-725q0 -59 -64 -59q-63 0 -63 59v682q0 67 -10 117t-34 91t-69 62t-111 21q-98 0 -187.5 -65.5t-137.5 -161.5v-746q0 -59 -64 -59q-63 0 -63 59z" />
<glyph unicode="o" horiz-adv-x="1091" d="M111 395v320q0 196 116.5 309t317.5 113q210 0 323 -111.5t113 -310.5v-312q0 -195 -115.5 -308t-320.5 -113t-319.5 109.5t-114.5 303.5zM240 414q0 -322 305 -322q147 0 228 82t81 248v276q0 165 -79.5 246.5t-229.5 81.5q-143 0 -224 -82t-81 -246v-284z" />
<glyph unicode="p" horiz-adv-x="1114" d="M156 -377v1444q0 57 61 57q62 0 62 -57v-139q43 77 137.5 143t212.5 66q180 0 276 -109.5t96 -320.5v-281q0 -207 -114.5 -325.5t-288.5 -118.5q-121 0 -201.5 49t-113.5 114v-522q0 -59 -64 -59q-63 0 -63 59zM285 369q0 -122 83 -199.5t216 -77.5q136 0 213 84t77 262 v252q0 332 -262 332q-130 0 -228.5 -100.5t-98.5 -245.5v-307z" />
<glyph unicode="q" horiz-adv-x="1118" d="M109 403v308q0 196 109.5 311t289.5 115q118 0 202 -49.5t126 -120.5v100q0 57 61 57t61 -57v-1444q0 -59 -63 -59q-31 0 -46 13.5t-15 45.5v522q-46 -69 -130.5 -116t-203.5 -47q-176 0 -283.5 113t-107.5 308zM236 420q0 -162 78.5 -245t209.5 -83q137 0 223.5 78.5 t86.5 214.5v358q0 114 -84.5 198.5t-214.5 84.5q-136 0 -217.5 -86t-81.5 -246v-274z" />
<glyph unicode="r" horiz-adv-x="661" d="M158 51v1016q0 57 61 57q62 0 62 -57v-188q47 102 146.5 179t193.5 77q45 0 45 -48q0 -86 -60 -86q-113 0 -205 -81.5t-116 -174.5v-694q0 -59 -64 -59q-63 0 -63 59z" />
<glyph unicode="s" horiz-adv-x="882" d="M86 213q-4 11 -4 21q0 14 8 26q12 21 33 28.5t44.5 0t33.5 -32.5q70 -166 248 -166q107 0 172 54t65 139q0 44 -16 79.5t-44 59t-65 44.5t-79 35.5t-86 32t-86 34.5t-79 43t-65 56.5t-44 75.5t-16 101q0 129 97 211t252 82q131 0 216 -59t122 -163q5 -13 5 -24 q0 -33 -44 -45q-16 -4 -29 -4q-36 0 -47 35q-26 75 -80 112t-149 37q-101 0 -160.5 -47.5t-59.5 -132.5q0 -40 16 -71.5t44 -52.5t65 -40.5t79 -33.5t86 -31.5t86 -35.5t79 -45.5t65 -60.5t44 -82t16 -108q0 -129 -99 -216t-261 -87q-132 0 -228 60t-135 171z" />
<glyph unicode="t" horiz-adv-x="686" d="M25 1057q0 55 49 55h125v223q0 60 63 60q64 0 64 -60v-223h202q50 0 50 -55q0 -56 -50 -56h-202v-706q0 -108 43 -146t137 -38h55q49 0 49 -56q0 -55 -49 -55h-55q-80 0 -133.5 13t-94.5 46t-60 94.5t-19 155.5v692h-125q-49 0 -49 56z" />
<glyph unicode="u" horiz-adv-x="1105" d="M141 315v752q0 59 64 59q63 0 63 -59v-741q0 -107 53.5 -167.5t143.5 -60.5q97 0 190 49.5t166 141.5v778q0 59 64 59q63 0 63 -59v-1018q0 -57 -61 -57q-62 0 -62 57v125q-69 -79 -168.5 -132.5t-218.5 -53.5q-138 0 -217.5 85.5t-79.5 241.5z" />
<glyph unicode="v" horiz-adv-x="882" d="M23 1051q-5 15 -5 27q0 16 8 28q14 20 52 20q57 0 74 -53l172 -541q72 -223 120 -405h2q39 152 119 408l164 528q19 63 78 63q36 0 50 -20q8 -11 8 -26q0 -12 -5 -27l-323 -996q-21 -67 -97 -67q-69 0 -90 69z" />
<glyph unicode="w" horiz-adv-x="1392" d="M45 1051q-4 14 -4 26q1 17 9 29q14 20 50 20q60 0 74 -53l137 -532q40 -155 82 -404h4q53 237 95 406l124 522q14 59 91 59q67 0 81 -61l123 -522q46 -189 86 -404h7q33 160 94 408l125 520q9 34 26.5 47.5t48.5 13.5q56 0 56 -44q0 -12 -4 -27l-265 -1000 q-16 -63 -92 -63q-74 0 -90 65l-119 521q-56 225 -79 362h-5q-29 -156 -86 -365l-127 -520q-16 -63 -98 -63q-68 0 -84 65z" />
<glyph unicode="x" horiz-adv-x="872" d="M57 12q-5 9 -5 19q0 13 9 28l308 506l-306 488q-11 17 -11 31q0 10 5 18q12 22 47 22q32 0 53 -10.5t38 -38.5l249 -416l244 418q17 27 36.5 37t49.5 10q34 0 45 -20q4 -8 4 -18q0 -14 -10 -31l-303 -496l305 -502q9 -14 9 -27q0 -9 -5 -18q-12 -20 -45 -20 q-30 0 -49.5 10t-36.5 37l-252 426l-250 -426q-25 -47 -86 -47q-32 0 -43 20z" />
<glyph unicode="y" horiz-adv-x="878" d="M12 1051q-5 15 -5 27q0 16 9 28q14 20 52 20q30 0 47 -12.5t26 -40.5l305 -907l293 897q19 63 78 63q37 0 51 -20q8 -10 8 -25q0 -12 -6 -28l-389 -1110q-81 -232 -266 -363q-22 -16 -40 -16h-6q-20 3 -40 28q-19 22 -16 47.5t26 38.5q81 47 139 127.5t99 204.5z" />
<glyph unicode="z" horiz-adv-x="944" d="M70 59q0 29 22 64l592 885h-524q-49 0 -49 55t49 55h608q63 0 63 -69q0 -33 -26 -76l-576 -862h584q49 0 49 -56q0 -55 -49 -55h-690q-53 0 -53 59z" />
<glyph unicode="{" horiz-adv-x="708" d="M53 637q0 53 43 59q199 31 199 211v322q0 65 3.5 109.5t16 91.5t35 75t62.5 46t96 18h65q48 0 48 -53q0 -54 -48 -54h-43q-53 0 -81.5 -32.5t-28.5 -92.5v-446q0 -98 -62 -166.5t-161 -83.5v-4q102 -18 162.5 -81t60.5 -173v-442q0 -58 28.5 -89.5t81.5 -31.5h43 q48 0 48 -53q0 -54 -48 -54h-65q-118 0 -165.5 74t-47.5 209v387q0 83 -52 133.5t-145 61.5q-45 6 -45 59z" />
<glyph unicode="|" horiz-adv-x="450" d="M164 -485v2070q0 57 59 57q64 0 64 -57v-2070q0 -58 -64 -58q-59 0 -59 58z" />
<glyph unicode="}" horiz-adv-x="710" d="M90 -233q0 53 47 53h43q53 0 82 32.5t29 92.5v446q0 98 62 166.5t161 83.5v4q-102 18 -162.5 81t-60.5 173v442q0 58 -29 89.5t-82 31.5h-43q-47 0 -47 54q0 53 47 53h66q118 0 165.5 -74t47.5 -209v-387q0 -83 51.5 -133t144.5 -61q45 -6 45 -60q0 -53 -43 -59 q-198 -31 -198 -211v-322q0 -65 -3.5 -109.5t-16 -91.5t-35 -75t-62.5 -46t-96 -18h-66q-47 0 -47 54z" />
<glyph unicode="~" d="M158 584q25 62 79.5 109.5t124.5 47.5q54 0 124.5 -19.5t127.5 -43t126 -43t120 -19.5q72 0 111 84q22 45 67 27q48 -18 31 -63q-25 -62 -80 -110t-125 -48q-61 0 -134 20t-129.5 43.5t-122 43.5t-113.5 20q-69 0 -109 -86q-22 -45 -68 -27q-47 17 -30 64z" />
<glyph unicode="&#xa1;" horiz-adv-x="497" d="M186 -332l13 979q0 47 51 47t51 -47l12 -979q0 -59 -63 -59q-64 0 -64 59zM186 961v126q0 60 64 60q63 0 63 -60v-126q0 -60 -63 -60q-64 0 -64 60z" />
<glyph unicode="&#xa2;" d="M246 418v293q0 179 92.5 285.5t245.5 129.5v125q0 60 63 60q64 0 64 -60v-123q117 -12 199.5 -74.5t117.5 -160.5q19 -53 -39 -76q-61 -21 -78 33q-24 74 -89 123t-163 49q-128 0 -206 -82.5t-78 -247.5v-258q0 -165 74.5 -248.5t207.5 -83.5q191 0 254 154q20 54 78 31 q56 -20 37 -74q-78 -196 -315 -219v-135q0 -60 -64 -60q-63 0 -63 60v137q-154 19 -246 127.5t-92 294.5z" />
<glyph unicode="&#xa3;" d="M133 743q0 56 49 56h133q-4 38 -21.5 143.5t-17.5 167.5q0 192 111.5 297.5t282.5 105.5q139 0 240.5 -70t136.5 -190q16 -53 -39 -75q-62 -21 -78 32q-54 187 -268 187q-108 0 -183.5 -72t-75.5 -209q0 -67 19.5 -173t23.5 -144h308q49 0 49 -56q0 -55 -49 -55h-301 q9 -359 -115 -571h698q56 0 56 -60q0 -57 -56 -57h-778q-63 0 -63 70q0 32 26 75q38 58 61 120t32 128t10.5 102.5t1.5 97.5v7.5v6.5v7v74h-144q-49 0 -49 55z" />
<glyph unicode="&#xa4;" d="M63 625q0 55 52 55h123v164h-123q-52 0 -52 53q0 55 52 55h123v95q0 212 127 339t344 130q165 0 279.5 -74.5t168.5 -216.5q22 -58 -41 -82q-63 -22 -84 35q-40 107 -122.5 162t-200.5 55q-174 0 -256 -95t-82 -264v-84h399q51 0 51 -55q0 -27 -12 -39t-39 -12h-399v-166 h399q51 0 51 -55q0 -52 -51 -52h-397v-98q3 -191 81 -284.5t251 -90.5q128 0 211.5 61.5t123.5 160.5q21 57 84 34q63 -24 41 -82q-45 -122 -166.5 -208t-289.5 -86q-223 0 -347 123t-124 362v106h-123q-52 0 -52 54z" />
<glyph unicode="&#xa5;" d="M128.5 1478.5q16.5 24.5 51.5 24.5q49 0 72 -41l358 -700l369 700q23 41 72 41q35 0 50.5 -26.5t-3.5 -63.5l-422 -776v-53h280q52 0 52 -56q0 -53 -52 -53h-280v-426q0 -63 -68 -63q-67 0 -67 63v426h-273q-51 0 -51 53q0 56 51 56h273v53l-410 780q-19 37 -2.5 61.5z " />
<glyph unicode="&#xa6;" horiz-adv-x="434" d="M156 383q0 57 59 57q64 0 64 -57v-868q0 -58 -64 -58q-59 0 -59 58v868zM156 717v868q0 57 59 57q64 0 64 -57v-868q0 -58 -64 -58q-59 0 -59 58z" />
<glyph unicode="&#xa7;" horiz-adv-x="991" d="M147 53q-15 62 39 76q64 16 74 -37q14 -74 77.5 -126t158.5 -52q103 0 165 49.5t62 147.5q0 48 -17 86t-55.5 71t-81.5 58t-114 59q-141 67 -201.5 136t-60.5 184q0 93 61 171.5t168 100.5q-258 94 -258 297q0 117 89.5 192.5t240.5 75.5q248 0 331 -211q19 -53 -39 -76 q-60 -21 -77 33q-21 66 -75.5 110t-139.5 44q-100 0 -152.5 -47t-52.5 -121q0 -72 50.5 -123t201.5 -117q155 -67 220.5 -143t65.5 -197q0 -98 -69.5 -175t-161.5 -95q111 -50 183.5 -128.5t72.5 -180.5q0 -138 -98 -220.5t-258 -82.5q-130 0 -226 67.5t-123 173.5zM307 705 q0 -91 57.5 -151t145.5 -60q94 0 148.5 58.5t54.5 141.5q0 94 -59.5 153.5t-151.5 59.5q-93 0 -144 -59t-51 -143z" />
<glyph unicode="&#xa8;" horiz-adv-x="823" d="M176 1331v117q0 59 64 59q63 0 63 -59v-117q0 -59 -63 -59q-64 0 -64 59zM520 1331v117q0 59 64 59q63 0 63 -59v-117q0 -59 -63 -59q-64 0 -64 59z" />
<glyph unicode="&#xa9;" horiz-adv-x="1562" d="M49 731q0 199 98.5 367.5t267.5 266t367 97.5q210 0 377 -94t260.5 -261t93.5 -376q0 -148 -58 -283.5t-156 -233.5t-233.5 -156t-283.5 -58q-213 0 -378.5 87t-260 254t-94.5 390zM150 731q0 -193 82 -339t225 -223t325 -77q129 0 246.5 50.5t202.5 136.5t135.5 204 t50.5 248q0 133 -48.5 251t-132.5 203t-202 134t-252 49q-174 0 -319.5 -85.5t-229 -231.5t-83.5 -320zM473 606v221q0 155 87.5 238.5t227.5 83.5q109 0 180 -52t95 -139q14 -46 -35 -59q-50 -14 -61 31q-13 54 -56 87.5t-120 33.5q-207 0 -207 -242v-188q0 -128 51 -186 t153 -58q139 0 181 102q16 45 65 29q46 -17 29 -64q-31 -76 -104.5 -118.5t-176.5 -42.5q-138 0 -223.5 83t-85.5 240z" />
<glyph unicode="&#xaa;" horiz-adv-x="772" d="M82 942v25q0 131 113.5 185t369.5 46v29q0 96 -47 144t-135 48q-111 0 -160 -82q-22 -39 -59 -24q-47 21 -29 61q28 63 91 101t159 38q146 0 216.5 -78.5t70.5 -220.5v-442q0 -51 -54 -51q-53 0 -53 51v45q-114 -100 -239 -100q-97 0 -170.5 61.5t-73.5 163.5zM188 942 q0 -63 44.5 -99t115.5 -36q121 0 217 96v211q-213 0 -295 -34.5t-82 -127.5v-10z" />
<glyph unicode="&#xab;" horiz-adv-x="1058" d="M113 596q0 29 18 55l275 391q34 48 86 9q48 -36 14 -86l-256 -367l256 -362q34 -50 -14 -86q-52 -39 -86 8l-275 389q-18 26 -18 49zM516 596q0 28 19 55l274 391q34 48 86 9q48 -36 14 -86l-256 -367l256 -362q34 -50 -14 -86q-52 -39 -86 8l-274 389q-19 27 -19 49z " />
<glyph unicode="&#xac;" d="M59 633q0 55 52 55h876q51 0 51 -55v-537q0 -49 -55 -49q-53 0 -53 49v484h-819q-52 0 -52 53z" />
<glyph unicode="&#xad;" horiz-adv-x="892" d="M115 610q0 56 51 56h559q51 0 51 -56q0 -53 -51 -53h-559q-51 0 -51 53z" />
<glyph unicode="&#xae;" horiz-adv-x="1075" d="M98 1096q0 177 130.5 303.5t310.5 126.5q193 0 314.5 -119.5t121.5 -310.5q0 -178 -128.5 -302t-307.5 -124q-194 0 -317.5 118t-123.5 308zM180 1096q0 -161 98 -259t261 -98q148 0 252 104.5t104 252.5q0 163 -97.5 261.5t-258.5 98.5q-149 0 -254 -105.5t-105 -254.5z M389 905v375q0 49 55 49h111q70 0 107.5 -38t37.5 -93v-18q0 -44 -22 -78t-64 -49l78 -140q10 -20 0.5 -32.5t-35.5 -12.5q-32 0 -49 35l-67 137h-74v-135q0 -37 -39 -37t-39 37zM465 1108h67q51 0 71 16.5t20 53.5v14q0 37 -17 53.5t-55 16.5h-86v-154z" />
<glyph unicode="&#xaf;" horiz-adv-x="1024" d="M262 1405q0 55 51 55h398q51 0 51 -55q0 -53 -51 -53h-398q-51 0 -51 53z" />
<glyph unicode="&#xb0;" horiz-adv-x="813" d="M82 1208q0 131 96.5 224.5t229.5 93.5q144 0 233.5 -86.5t89.5 -231.5q0 -131 -95 -224t-228 -93q-143 0 -234.5 86t-91.5 231zM197 1206q0 -87 61 -147t148 -60q86 0 147 60.5t61 146.5q0 89 -58 149t-150 60q-87 0 -148 -60t-61 -149z" />
<glyph unicode="&#xb1;" d="M90 55q0 56 51 56h414v469h-414q-51 0 -51 55t51 55h414v412q0 55 59 55q30 0 45 -12.5t15 -42.5v-412h413q52 0 52 -55t-52 -55h-413v-469h413q52 0 52 -56q0 -55 -52 -55h-946q-51 0 -51 55z" />
<glyph unicode="&#xb2;" horiz-adv-x="634" d="M61 1356q33 69 103 113t168 44q104 0 171.5 -57.5t67.5 -155.5q0 -48 -12.5 -83t-46.5 -67t-76.5 -57.5t-120.5 -64.5q-37 -18 -62.5 -38.5t-40 -38.5t-21.5 -42.5t-9 -44t-2 -49.5h350q43 0 43 -47q0 -49 -45 -49h-399q-63 0 -63 59v31q0 109 50.5 179.5t174.5 133.5 q99 49 133.5 82.5t34.5 93.5q0 52 -35 83.5t-100 31.5q-64 0 -107.5 -26.5t-62.5 -65.5q-20 -42 -64 -27q-47 21 -29 62z" />
<glyph unicode="&#xb3;" horiz-adv-x="636" d="M61 856q-18 41 29 62q22 8 36.5 2t27.5 -29q52 -88 165 -88q63 0 103.5 32.5t40.5 94.5v12q0 66 -42 102.5t-124 36.5h-35q-47 0 -47 49q0 50 47 50h64q58 0 97.5 28.5t39.5 81.5v8q0 54 -35.5 85.5t-99.5 31.5q-123 0 -168 -88q-20 -42 -64 -24q-46 17 -28 59 q32 69 99.5 110t162.5 41q119 0 182 -60t63 -146v-19q0 -67 -39 -109.5t-94 -48.5q56 -18 93.5 -67t37.5 -115v-20q0 -99 -69 -161t-185 -62q-98 0 -162.5 42.5t-95.5 108.5z" />
<glyph unicode="&#xb4;" horiz-adv-x="663" d="M183 1243q-7 16 7 35l156 233q18 26 34.5 33.5t45.5 7.5q39 0 49.5 -22t-10.5 -45l-184 -228q-24 -30 -62 -30q-29 0 -36 16z" />
<glyph unicode="&#xb5;" d="M213 -377v1444q0 59 63 59q64 0 64 -59v-682q0 -122 75 -199t179 -77q51 0 100 23.5t81.5 54.5t59.5 66.5t38.5 56.5t13.5 26v731q0 59 63 59q64 0 64 -59v-1018q0 -57 -62 -57q-61 0 -61 57v148q-107 -215 -297 -215q-87 0 -156 42t-98 111v-512q0 -59 -64 -59 q-63 0 -63 59z" />
<glyph unicode="&#xb6;" horiz-adv-x="1114" d="M49 995q0 238 149 373t439 135h354q49 0 49 -55t-49 -55h-88v-1620q0 -60 -63 -60q-64 0 -64 60v1620h-133v-877h-123q-98 0 -182.5 30t-149.5 88t-102 151t-37 210z" />
<glyph unicode="&#xb7;" horiz-adv-x="487" d="M180 545v162q0 59 64 59q63 0 63 -59v-162q0 -60 -63 -60q-64 0 -64 60z" />
<glyph unicode="&#xb8;" horiz-adv-x="823" d="M246 -303q25 25 55 4q47 -33 98 -33q50 0 76.5 21.5t26.5 60.5v8q0 42 -32 64t-85 22q-20 0 -32.5 9t-12.5 24v168h88v-137q77 -1 122.5 -43.5t45.5 -102.5v-14q0 -64 -51 -111t-146 -47q-64 0 -129 33t-24 74z" />
<glyph unicode="&#xb9;" horiz-adv-x="561" d="M68 1358q-6 41 32 49q4 1 34.5 7t49 10.5t42 14.5t32.5 21q3 4 9.5 13t9 11.5t8 7.5t10 6.5t11.5 3t16 1.5q45 0 45 -30v-658h116q26 0 35.5 -11.5t9.5 -39.5q0 -45 -45 -45h-344q-45 0 -45 45q0 27 10.5 39t34.5 12h115v524l-139 -16q-41 -3 -47 35z" />
<glyph unicode="&#xba;" horiz-adv-x="780" d="M80 995v242q0 128 87 202t220 74q144 0 227.5 -71.5t83.5 -204.5v-242q0 -133 -84 -205.5t-227 -72.5q-142 0 -224.5 72.5t-82.5 205.5zM188 1012q0 -201 199 -201q97 0 148 48t51 153v209q0 104 -51 151t-148 47q-199 0 -199 -198v-209z" />
<glyph unicode="&#xbb;" horiz-adv-x="1054" d="M123 188.5q-4 19.5 14 47.5l256 366l-256 363q-18 28 -14 47.5t29 38.5q52 39 86 -9l274 -389q18 -26 18 -49q0 -29 -18 -55l-274 -391q-34 -47 -86 -8q-25 19 -29 38.5zM541 236l256 366l-256 363q-34 50 14 86q52 39 86 -9l274 -389q19 -27 19 -49q0 -28 -19 -55 l-274 -391q-34 -47 -86 -8q-48 36 -14 86z" />
<glyph unicode="&#xbc;" horiz-adv-x="1531" d="M109 1305q-6 41 32 49q4 1 34.5 7t49 10.5t42 14.5t32.5 21q3 4 11 15t10.5 13.5t9.5 7.5t14 6t18 1q46 0 46 -31v-657h116q26 0 35.5 -11.5t9.5 -39.5q0 -45 -45 -45h-344q-45 0 -45 45q0 27 10.5 39t34.5 12h115v524l-139 -16q-41 -3 -47 35zM348 23l768 1470 q8 16 27 16h82q21 0 12 -18l-770 -1477q-6 -14 -31 -14h-74q-24 0 -14 23zM844 299q0 25 24 61l349 529q17 22 33.5 22t41.5 -18q41 -31 11 -74l-316 -483h219v129q0 53 56 53q28 0 41.5 -12t13.5 -41v-129h67q48 0 48 -49q0 -25 -11 -36t-37 -11h-67v-127q0 -54 -55 -54 q-56 0 -56 54v127h-307q-55 0 -55 59z" />
<glyph unicode="&#xbd;" horiz-adv-x="1630" d="M109 1305q-6 41 32 49q4 1 34.5 7t49 10.5t42 14.5t32.5 21q3 4 11 15t10.5 13.5t9.5 7.5t14 6t18 1q46 0 46 -31v-657h116q26 0 35.5 -11.5t9.5 -39.5q0 -45 -45 -45h-344q-45 0 -45 45q0 27 10.5 39t34.5 12h115v524l-139 -16q-41 -3 -47 35zM348 23l768 1470 q8 16 27 16h82q21 0 12 -18l-770 -1477q-6 -14 -31 -14h-74q-24 0 -14 23zM1012 748q33 69 102.5 113t167.5 44q104 0 172 -58t68 -155q0 -48 -12.5 -83t-46.5 -67t-76.5 -57.5t-120.5 -64.5q-87 -43 -111.5 -90t-24.5 -123h351q43 0 43 -47q0 -49 -45 -49h-400 q-63 0 -63 59v31q0 109 50.5 179.5t174.5 133.5q99 49 133.5 82.5t34.5 93.5q0 52 -35 83.5t-100 31.5q-64 0 -107.5 -26.5t-62.5 -65.5q-20 -42 -64 -27q-46 20 -28 62z" />
<glyph unicode="&#xbe;" horiz-adv-x="1550" d="M111 793q-17 41 28 61q22 8 36.5 2t27.5 -29q52 -88 166 -88q63 0 103 32.5t40 94.5v13q0 66 -42 102.5t-124 36.5h-35q-47 0 -47 49t47 49h64q58 0 97.5 29t39.5 82v8q0 54 -35.5 85.5t-99.5 31.5q-123 0 -168 -88q-21 -43 -64 -25q-46 17 -28 59q32 69 99.5 110.5 t162.5 41.5q119 0 182.5 -60.5t63.5 -146.5v-18q0 -67 -39 -109.5t-94 -48.5q56 -18 93.5 -67t37.5 -115v-21q0 -99 -69 -161t-185 -62q-97 0 -162 43t-96 109zM367 23l768 1470q11 16 26 16h82q23 0 14 -18l-774 -1477q-6 -14 -28 -14h-74q-27 0 -14 23zM866 299 q0 23 25 61l348 529q17 22 34 22t42 -18q41 -30 10 -74l-315 -483h219v129q0 53 55 53q28 0 41.5 -12t13.5 -41v-129h68q47 0 47 -49q0 -25 -10.5 -36t-36.5 -11h-68v-127q0 -54 -55 -54t-55 54v127h-307q-56 0 -56 59z" />
<glyph unicode="&#xbf;" horiz-adv-x="847" d="M90 -88q0 79 36.5 150.5t88 127t103 109.5t88 120.5t36.5 137.5v35q0 57 62 57q61 0 61 -57v-39q0 -79 -35.5 -151.5t-86 -128t-101 -109.5t-86 -117.5t-35.5 -128.5q0 -117 62 -184.5t186 -67.5q140 0 236 107q36 39 79 2q45 -42 7 -82q-61 -64 -147.5 -103t-188.5 -39 q-174 0 -269.5 102.5t-95.5 258.5zM440 922v114q0 60 64 60q63 0 63 -60v-114q0 -60 -63 -60q-64 0 -64 60z" />
<glyph unicode="&#xc0;" horiz-adv-x="1120" d="M35 57l442 1383q12 35 32 49t54 14q64 0 84 -65l434 -1377q9 -34 -7 -54.5t-50 -20.5q-32 0 -51 14.5t-29 48.5l-125 416h-526l-125 -418q-19 -61 -80 -61q-32 0 -47 19.5t-6 51.5zM292 1955q11 23 46 23q28 0 43 -8t29 -28l159 -236q15 -23 5 -39t-39 -16q-31 0 -60 37 l-172 215q-22 29 -11 52zM328 578h456l-223 751z" />
<glyph unicode="&#xc1;" horiz-adv-x="1120" d="M35 57l442 1383q12 35 32 49t54 14q64 0 84 -65l434 -1377q9 -34 -7 -54.5t-50 -20.5q-32 0 -51 14.5t-29 48.5l-125 416h-526l-125 -418q-19 -61 -80 -61q-32 0 -47 19.5t-6 51.5zM328 578h456l-223 751zM523 1667q-7 16 7 35l156 233q18 26 34.5 33.5t45.5 7.5 q39 0 49.5 -22t-10.5 -45l-184 -228q-24 -30 -62 -30q-29 0 -36 16z" />
<glyph unicode="&#xc2;" horiz-adv-x="1120" d="M35 57l442 1383q12 35 32 49t54 14q64 0 84 -65l434 -1377q9 -34 -7 -54.5t-50 -20.5q-32 0 -51 14.5t-29 48.5l-125 416h-526l-125 -418q-19 -61 -80 -61q-32 0 -47 19.5t-6 51.5zM328 578h456l-223 751zM334 1670q-9 15 4 34l147 215q21 33 68 33q50 0 74 -37l141 -211 q13 -19 4 -34t-39 -15q-28 0 -44 9.5t-32 33.5l-102 172l-106 -172q-16 -24 -32 -33.5t-44 -9.5q-30 0 -39 15z" />
<glyph unicode="&#xc3;" horiz-adv-x="1120" d="M35 57l442 1383q12 35 32 49t54 14q64 0 84 -65l434 -1377q9 -34 -7 -54.5t-50 -20.5q-32 0 -51 14.5t-29 48.5l-125 416h-526l-125 -418q-19 -61 -80 -61q-32 0 -47 19.5t-6 51.5zM272 1749q20 55 68 98t111 43q34 0 69.5 -15.5t60.5 -34.5t55 -34.5t54 -15.5 q63 0 98 76q19 39 62 24q40 -18 24 -57q-22 -55 -70.5 -98t-111.5 -43q-46 0 -90 25t-80.5 50t-64.5 25q-65 0 -99 -78q-19 -37 -61 -20q-41 14 -25 55zM328 578h456l-223 751z" />
<glyph unicode="&#xc4;" horiz-adv-x="1120" d="M35 57l442 1383q12 35 32 49t54 14q64 0 84 -65l434 -1377q9 -34 -7 -54.5t-50 -20.5q-32 0 -51 14.5t-29 48.5l-125 416h-526l-125 -418q-19 -61 -80 -61q-32 0 -47 19.5t-6 51.5zM319 1743v117q0 59 64 59q63 0 63 -59v-117q0 -60 -63 -60q-64 0 -64 60zM328 578h456 l-223 751zM664 1743v117q0 59 63 59q64 0 64 -59v-117q0 -60 -64 -60q-63 0 -63 60z" />
<glyph unicode="&#xc5;" horiz-adv-x="1120" d="M35 57l442 1383q12 35 32 49t54 14q64 0 84 -65l434 -1377q9 -34 -7 -54.5t-50 -20.5q-32 0 -51 14.5t-29 48.5l-125 416h-526l-125 -418q-19 -61 -80 -61q-32 0 -47 19.5t-6 51.5zM328 578h456l-223 751zM393 1798q0 68 47.5 115t114.5 47q70 0 117 -44.5t47 -117.5 q0 -67 -48 -113.5t-116 -46.5q-73 0 -117.5 45.5t-44.5 114.5zM469 1798q0 -37 23.5 -62.5t62.5 -25.5q35 0 60.5 26.5t25.5 61.5q0 40 -23 63t-63 23q-39 0 -62.5 -25t-23.5 -61z" />
<glyph unicode="&#xc6;" horiz-adv-x="1671" d="M70.5 11.5q-14.5 23.5 1.5 58.5l637 1321q26 60 57 83t84 23h668q55 0 55 -61q0 -58 -55 -58h-568v-553h516q56 0 56 -59q0 -57 -56 -57h-516v-592h570q55 0 55 -58q0 -59 -55 -59h-611q-94 0 -94 84v264h-475l-152 -321q-18 -39 -71 -39q-32 0 -46.5 23.5zM395 463h420 v874z" />
<glyph unicode="&#xc7;" horiz-adv-x="1175" d="M158 444v613q0 214 134.5 335t354.5 121q165 0 280 -74.5t169 -215.5q22 -58 -41 -82q-63 -22 -84 35q-39 107 -122.5 162t-201.5 55q-164 0 -259 -85.5t-95 -252.5v-611q0 -163 85 -254.5t265 -91.5q121 0 204.5 61.5t123.5 159.5q21 57 84 35q63 -24 41 -82 q-43 -116 -156 -200.5t-270 -91.5v-99q77 -1 122.5 -43.5t45.5 -101.5v-15q0 -64 -51 -110.5t-146 -46.5q-64 0 -129.5 32.5t-24.5 73.5q25 25 56 4q46 -32 98 -32q50 0 76 21.5t26 60.5v8q0 42 -31.5 64t-84.5 22q-45 0 -45 32v130q-424 29 -424 464z" />
<glyph unicode="&#xc8;" horiz-adv-x="1034" d="M178 84v1329q0 84 94 84h609q55 0 55 -61q0 -58 -55 -58h-568v-553h516q56 0 56 -59q0 -57 -56 -57h-516v-592h570q55 0 55 -58q0 -59 -55 -59h-611q-94 0 -94 84zM306 1955q11 23 46 23q28 0 43 -8t29 -28l160 -236q15 -23 4.5 -39t-39.5 -16q-31 0 -60 37l-172 215 q-22 29 -11 52z" />
<glyph unicode="&#xc9;" horiz-adv-x="1034" d="M178 84v1329q0 84 94 84h609q55 0 55 -61q0 -58 -55 -58h-568v-553h516q56 0 56 -59q0 -57 -56 -57h-516v-592h570q55 0 55 -58q0 -59 -55 -59h-611q-94 0 -94 84zM533.5 1669q-6.5 16 7.5 35l155 233q18 26 34.5 33.5t45.5 7.5q39 0 49.5 -22t-10.5 -45l-184 -228 q-24 -30 -62 -30q-29 0 -35.5 16z" />
<glyph unicode="&#xca;" horiz-adv-x="1034" d="M178 84v1329q0 84 94 84h609q55 0 55 -61q0 -58 -55 -58h-568v-553h516q56 0 56 -59q0 -57 -56 -57h-516v-592h570q55 0 55 -58q0 -59 -55 -59h-611q-94 0 -94 84zM350 1670q-9 15 4 34l148 215q12 19 26.5 26t40.5 7q50 0 74 -37l141 -211q13 -19 4 -34t-38 -15 q-28 0 -44 9.5t-32 33.5l-103 172l-106 -172q-16 -24 -32 -33.5t-44 -9.5q-30 0 -39 15z" />
<glyph unicode="&#xcb;" horiz-adv-x="1034" d="M178 84v1329q0 84 94 84h609q55 0 55 -61q0 -58 -55 -58h-568v-553h516q56 0 56 -59q0 -57 -56 -57h-516v-592h570q55 0 55 -58q0 -59 -55 -59h-611q-94 0 -94 84zM315 1745v117q0 59 64 59q63 0 63 -59v-117q0 -59 -63 -59q-64 0 -64 59zM659 1745v117q0 59 64 59 q63 0 63 -59v-117q0 -59 -63 -59q-64 0 -64 59z" />
<glyph unicode="&#xcc;" horiz-adv-x="663" d="M-3 1955q11 23 46 23q28 0 43 -8t29 -28l159 -236q15 -23 5 -39t-39 -16q-31 0 -60 37l-172 215q-22 29 -11 52zM188 49v1391q0 63 68 63t68 -63v-1391q0 -63 -68 -63t-68 63z" />
<glyph unicode="&#xcd;" horiz-adv-x="512" d="M188 49v1391q0 63 68 63t68 -63v-1391q0 -63 -68 -63t-68 63zM232.5 1667q-6.5 16 7.5 35l155 233q18 26 34.5 33.5t45.5 7.5q39 0 49.5 -22t-10.5 -45l-184 -228q-24 -30 -62 -30q-29 0 -35.5 16z" />
<glyph unicode="&#xce;" horiz-adv-x="512" d="M35 1668q-9 15 4 34l147 215q21 33 68 33q50 0 74 -37l141 -211q13 -19 4 -34t-39 -15q-28 0 -44 9.5t-32 33.5l-102 172l-106 -172q-16 -24 -32 -33.5t-44 -9.5q-30 0 -39 15zM188 49v1391q0 63 68 63t68 -63v-1391q0 -63 -68 -63t-68 63z" />
<glyph unicode="&#xcf;" horiz-adv-x="512" d="M23 1747v117q0 59 63 59q64 0 64 -59v-117q0 -59 -64 -59q-63 0 -63 59zM188 49v1391q0 63 68 63t68 -63v-1391q0 -63 -68 -63t-68 63zM367 1747v117q0 59 63 59q64 0 64 -59v-117q0 -59 -64 -59q-63 0 -63 59z" />
<glyph unicode="&#xd0;" horiz-adv-x="1292" d="M18 768q0 55 52 55h108v590q0 84 94 84h396q218 0 341.5 -133.5t123.5 -345.5v-539q0 -212 -124.5 -345.5t-340.5 -133.5h-396q-94 0 -94 84v631h-108q-52 0 -52 53zM313 117h322q97 0 168.5 28t113.5 79t62 116.5t20 146.5v523q0 81 -20.5 146.5t-63 116.5t-113.5 79 t-167 28h-322v-557h316q51 0 51 -55q0 -53 -51 -53h-316v-598z" />
<glyph unicode="&#xd1;" horiz-adv-x="1376" d="M178 45v1368q0 90 96 90q48 0 74.5 -14.5t50.5 -58.5l430 -797q129 -236 242 -494h6q-12 258 -12 410v891q0 63 65 63q33 0 49.5 -14.5t16.5 -48.5v-1370q0 -84 -90 -84q-45 0 -70 14t-47 55l-471 879q-82 152 -215 424h-6q10 -161 10 -383v-930q0 -59 -63 -59 q-66 0 -66 59zM410 1749q20 55 67.5 98t110.5 43q34 0 69.5 -15.5t60.5 -34.5t55 -34.5t54 -15.5q64 0 99 76q19 39 61 24q41 -18 25 -57q-22 -55 -71 -98t-112 -43q-47 0 -90.5 25t-80 50t-64.5 25q-64 0 -98 -78q-20 -38 -62 -20q-40 14 -24 55z" />
<glyph unicode="&#xd2;" horiz-adv-x="1349" d="M158 473q0 -228 136.5 -362t381.5 -134q244 0 380 133.5t136 362.5v545q0 229 -135.5 362t-380.5 133t-381.5 -133.5t-136.5 -361.5v-545zM293 473v545q0 179 101 277t282 98t281 -98t100 -277v-545q0 -179 -100 -277t-281 -98t-282 98t-101 277zM423 1953q11 23 46 23 q27 0 42.5 -8t29.5 -29l159 -235q15 -23 5 -39t-39 -16q-31 0 -60 37l-172 215q-22 29 -11 52z" />
<glyph unicode="&#xd3;" horiz-adv-x="1349" d="M158 473q0 -228 136.5 -362t381.5 -134q244 0 380 133.5t136 362.5v545q0 229 -135.5 362t-380.5 133t-381.5 -133.5t-136.5 -361.5v-545zM293 473v545q0 179 101 277t282 98t281 -98t100 -277v-545q0 -179 -100 -277t-281 -98t-282 98t-101 277zM636 1669q-7 16 7 35 l156 233q18 26 34.5 33.5t45.5 7.5q39 0 49.5 -22t-10.5 -45l-185 -228q-15 -18 -27.5 -24t-33.5 -6q-29 0 -36 16z" />
<glyph unicode="&#xd4;" horiz-adv-x="1349" d="M158 473v545q0 228 136.5 361.5t381.5 133.5t380.5 -133t135.5 -362v-545q0 -229 -136 -362.5t-380 -133.5q-245 0 -381.5 134t-136.5 362zM293 473q0 -179 101 -277t282 -98t281 98t100 277v545q0 179 -100 277t-281 98t-282 -98t-101 -277v-545zM455 1670q-9 15 4 34 l147 215q21 33 68 33q50 0 74 -37l141 -211q13 -19 4 -34t-39 -15q-28 0 -44 9.5t-32 33.5l-102 172l-107 -172q-16 -24 -31.5 -33.5t-43.5 -9.5q-30 0 -39 15z" />
<glyph unicode="&#xd5;" horiz-adv-x="1349" d="M158 473q0 -228 136.5 -362t381.5 -134q244 0 380 133.5t136 362.5v545q0 229 -135.5 362t-380.5 133t-381.5 -133.5t-136.5 -361.5v-545zM293 473v545q0 179 101 277t282 98t281 -98t100 -277v-545q0 -179 -100 -277t-281 -98t-282 98t-101 277zM371 1751q20 55 67.5 98 t110.5 43q34 0 69.5 -15.5t60.5 -34.5t55 -34.5t54 -15.5q64 0 99 76q19 39 61 24q41 -18 25 -57q-22 -55 -70.5 -98t-111.5 -43q-37 0 -73 15.5t-60 34.5t-52 34.5t-51 15.5q-64 0 -98 -78q-20 -38 -62 -20q-40 14 -24 55z" />
<glyph unicode="&#xd6;" horiz-adv-x="1349" d="M158 473q0 -228 136.5 -362t381.5 -134q244 0 380 133.5t136 362.5v545q0 229 -135.5 362t-380.5 133t-381.5 -133.5t-136.5 -361.5v-545zM293 473v545q0 179 101 277t282 98t281 -98t100 -277v-545q0 -179 -100 -277t-281 -98t-282 98t-101 277zM442 1745v117 q0 59 64 59q63 0 63 -59v-117q0 -59 -63 -59q-64 0 -64 59zM786 1745v117q0 59 64 59q63 0 63 -59v-117q0 -59 -63 -59q-64 0 -64 59z" />
<glyph unicode="&#xd7;" d="M170 262l365 369l-365 366q-38 36 2 76q39 42 76 2l366 -366l367 366q37 40 76 -2q40 -40 2 -76l-365 -366l365 -369q38 -36 -2 -76q-39 -42 -76 -2l-367 369l-366 -369q-37 -40 -76 2q-40 40 -2 76z" />
<glyph unicode="&#xd8;" horiz-adv-x="1349" d="M158 473v545q0 228 136.5 361.5t381.5 133.5q192 0 323 -88l64 109q21 43 78 43q34 0 45 -16t-2 -41l-99 -172q107 -128 107 -330v-545q0 -229 -136 -362.5t-380 -133.5q-191 0 -322 86l-65 -116q-21 -43 -78 -43q-67 0 -43 57l100 176q-110 128 -110 336zM293 473 q0 -123 47 -209l596 1049q-99 80 -260 80q-181 0 -282 -98t-101 -277v-545zM418 174q98 -76 258 -76q181 0 281 98t100 277v545q0 116 -45 201z" />
<glyph unicode="&#xd9;" horiz-adv-x="1292" d="M160 397v1043q0 63 67 63q68 0 68 -63v-1045q0 -143 88.5 -220t259.5 -77q172 0 265 77.5t93 219.5v1045q0 63 66 63q33 0 49.5 -14.5t16.5 -48.5v-1043q0 -87 -29.5 -161t-87.5 -132t-153.5 -91t-219.5 -33t-219 33t-151.5 91t-84.5 131.5t-28 161.5zM409 1957 q11 23 46 23q27 0 42 -7.5t29 -28.5l160 -236q15 -23 4.5 -39t-39.5 -16q-30 0 -59 37l-172 215q-22 29 -11 52z" />
<glyph unicode="&#xda;" horiz-adv-x="1292" d="M160 397v1043q0 63 67 63q68 0 68 -63v-1045q0 -143 88.5 -220t259.5 -77q172 0 265 77.5t93 219.5v1045q0 63 66 63q33 0 49.5 -14.5t16.5 -48.5v-1043q0 -87 -29.5 -161t-87.5 -132t-153.5 -91t-219.5 -33t-219 33t-151.5 91t-84.5 131.5t-28 161.5zM607 1669 q-7 16 7 35l156 233q18 26 34.5 33.5t45.5 7.5q39 0 49.5 -22t-10.5 -45l-184 -228q-24 -30 -62 -30q-29 0 -36 16z" />
<glyph unicode="&#xdb;" horiz-adv-x="1292" d="M160 397v1043q0 63 67 63q68 0 68 -63v-1045q0 -143 88.5 -220t259.5 -77q172 0 265 77.5t93 219.5v1045q0 63 66 63q33 0 49.5 -14.5t16.5 -48.5v-1043q0 -87 -29.5 -161t-87.5 -132t-153.5 -91t-219.5 -33t-219 33t-151.5 91t-84.5 131.5t-28 161.5zM434 1670 q-9 15 4 34l148 215q12 19 26.5 26t40.5 7q50 0 74 -37l141 -211q13 -19 4 -34t-38 -15q-28 0 -44 9.5t-32 33.5l-103 172l-106 -172q-16 -24 -32 -33.5t-44 -9.5q-30 0 -39 15z" />
<glyph unicode="&#xdc;" horiz-adv-x="1292" d="M160 397v1043q0 63 67 63q68 0 68 -63v-1045q0 -143 88.5 -220t259.5 -77q172 0 265 77.5t93 219.5v1045q0 63 66 63q33 0 49.5 -14.5t16.5 -48.5v-1043q0 -87 -29.5 -161t-87.5 -132t-153.5 -91t-219.5 -33t-219 33t-151.5 91t-84.5 131.5t-28 161.5zM422 1745v117 q0 59 63 59q64 0 64 -59v-117q0 -59 -64 -59q-63 0 -63 59zM766 1745v117q0 59 63 59q64 0 64 -59v-117q0 -59 -64 -59q-63 0 -63 59z" />
<glyph unicode="&#xdd;" horiz-adv-x="1062" d="M32.5 1478.5q16.5 24.5 51.5 24.5q49 0 72 -41l376 -712l377 712q23 41 72 41q35 0 50.5 -26.5t-3.5 -63.5l-430 -788v-576q0 -63 -68 -63q-67 0 -67 63v574l-428 794q-19 37 -2.5 61.5zM488.5 1665q-6.5 16 7.5 35l155 233q18 26 34.5 33.5t45.5 7.5q39 0 49.5 -22 t-10.5 -45l-184 -228q-24 -30 -62 -30q-29 0 -35.5 16z" />
<glyph unicode="&#xde;" horiz-adv-x="1140" d="M190 49v1391q0 63 68 63t68 -63v-205h254q232 0 354.5 -114t122.5 -333v-67q0 -208 -124.5 -318t-324.5 -110h-282v-244q0 -63 -68 -63t-68 63zM326 410h266q156 0 246 75t90 240v55q0 177 -93.5 256.5t-269.5 79.5h-239v-706z" />
<glyph unicode="&#xdf;" horiz-adv-x="1163" d="M156 51v1065q0 195 96.5 302.5t296.5 107.5q92 0 164 -26.5t113 -65.5t67.5 -90t35.5 -94.5t9 -84.5v-28q0 -104 -41.5 -174t-108.5 -105q116 -35 197.5 -141t81.5 -258v-80q0 -64 -10.5 -119.5t-37 -107.5t-67 -89t-104.5 -59t-146 -22q-187 0 -290 112q-41 44 8 86 q46 43 88 -2q71 -78 194 -78q119 0 178.5 70t59.5 215v72q0 159 -95 244t-249 85h-49q-55 0 -55 60q0 61 55 61h45q111 0 165 61t54 189q0 111 -67 180.5t-195 69.5q-139 0 -202.5 -75.5t-63.5 -237.5v-1043q0 -59 -64 -59q-63 0 -63 59z" />
<glyph unicode="&#xe0;" horiz-adv-x="1017" d="M88 305v8q0 131 64.5 206.5t210.5 106.5t393 19v80q0 156 -62 228.5t-188 72.5q-172 0 -244 -166q-23 -52 -74 -29q-55 23 -34 74q101 232 358 232q186 0 278.5 -107.5t92.5 -306.5v-678q0 -59 -64 -59q-61 0 -61 59v82q-149 -145 -342 -145q-139 0 -233.5 88t-94.5 235z M215 307q0 -93 65 -154t164 -61q172 0 312 144v313q-297 11 -419 -40t-122 -187v-15zM241 1561.5q11 23.5 46 23.5q27 0 42 -8t29 -29l160 -235q15 -23 4.5 -39.5t-39.5 -16.5q-30 0 -59 37l-172 215q-22 29 -11 52.5z" />
<glyph unicode="&#xe1;" horiz-adv-x="1017" d="M88 305v8q0 131 64.5 206.5t210.5 106.5t393 19v80q0 156 -62 228.5t-188 72.5q-172 0 -244 -166q-23 -52 -74 -29q-55 23 -34 74q101 232 358 232q186 0 278.5 -107.5t92.5 -306.5v-678q0 -59 -64 -59q-61 0 -61 59v82q-149 -145 -342 -145q-139 0 -233.5 88t-94.5 235z M215 307q0 -93 65 -154t164 -61q172 0 312 144v313q-297 11 -419 -40t-122 -187v-15zM476 1276q-7 16 7 35l156 233q18 26 34.5 33.5t45.5 7.5q39 0 49.5 -22t-10.5 -45l-185 -228q-15 -18 -27.5 -24t-33.5 -6q-29 0 -36 16z" />
<glyph unicode="&#xe2;" horiz-adv-x="1017" d="M88 305v8q0 131 64.5 206.5t210.5 106.5t393 19v80q0 156 -62 228.5t-188 72.5q-172 0 -244 -166q-23 -52 -74 -29q-55 23 -34 74q101 232 358 232q186 0 278.5 -107.5t92.5 -306.5v-678q0 -59 -64 -59q-61 0 -61 59v82q-149 -145 -342 -145q-139 0 -233.5 88t-94.5 235z M215 307q0 -93 65 -154t164 -61q172 0 312 144v313q-297 11 -419 -40t-122 -187v-15zM283 1275q-9 15 4 34l147 215q20 32 68 32q50 0 73 -36l142 -211q13 -19 4 -34t-39 -15q-28 0 -44 9.5t-32 33.5l-102 172l-107 -172q-16 -24 -31.5 -33.5t-43.5 -9.5q-30 0 -39 15z" />
<glyph unicode="&#xe3;" horiz-adv-x="1017" d="M88 305v8q0 131 64.5 206.5t210.5 106.5t393 19v80q0 156 -62 228.5t-188 72.5q-172 0 -244 -166q-23 -52 -74 -29q-55 23 -34 74q101 232 358 232q186 0 278.5 -107.5t92.5 -306.5v-678q0 -59 -64 -59q-61 0 -61 59v82q-149 -145 -342 -145q-139 0 -233.5 88t-94.5 235z M199 1352q20 55 67.5 98t110.5 43q34 0 69.5 -15.5t60.5 -34.5t55 -34.5t54 -15.5q65 0 99 75q19 39 61 25q41 -18 25 -57q-22 -55 -71 -98.5t-112 -43.5q-37 0 -73 16t-59.5 34.5t-51.5 34.5t-51 16q-64 0 -98 -78q-20 -38 -62 -21q-40 14 -24 56zM215 307q0 -93 65 -154 t164 -61q172 0 312 144v313q-297 11 -419 -40t-122 -187v-15z" />
<glyph unicode="&#xe4;" horiz-adv-x="1017" d="M88 305v8q0 131 64.5 206.5t210.5 106.5t393 19v80q0 156 -62 228.5t-188 72.5q-172 0 -244 -166q-23 -52 -74 -29q-55 23 -34 74q101 232 358 232q186 0 278.5 -107.5t92.5 -306.5v-678q0 -59 -64 -59q-61 0 -61 59v82q-149 -145 -342 -145q-139 0 -233.5 88t-94.5 235z M215 307q0 -93 65 -154t164 -61q172 0 312 144v313q-297 11 -419 -40t-122 -187v-15zM258 1339v117q0 60 64 60q63 0 63 -60v-117q0 -59 -63 -59q-64 0 -64 59zM602 1339v117q0 60 64 60q63 0 63 -60v-117q0 -59 -63 -59q-64 0 -64 59z" />
<glyph unicode="&#xe5;" horiz-adv-x="1015" d="M88 305v8q0 131 64.5 206.5t210.5 106.5t393 19v80q0 156 -62 228.5t-188 72.5q-172 0 -244 -166q-23 -52 -74 -29q-55 23 -34 74q101 232 358 232q186 0 278.5 -107.5t92.5 -306.5v-678q0 -59 -64 -59q-61 0 -61 59v82q-149 -145 -342 -145q-139 0 -233.5 88t-94.5 235z M215 307q0 -93 65 -154t164 -61q172 0 312 144v313q-297 11 -419 -40t-122 -187v-15zM319 1423q0 67 47.5 114.5t114.5 47.5q70 0 117 -44.5t47 -117.5q0 -67 -48 -113t-116 -46q-74 0 -118 45t-44 114zM395 1423q0 -37 23.5 -62.5t62.5 -25.5q35 0 60.5 26.5t25.5 61.5 q0 39 -23.5 62.5t-62.5 23.5q-38 0 -62 -25t-24 -61z" />
<glyph unicode="&#xe6;" horiz-adv-x="1675" d="M80 305v8q0 131 65 206t210 105.5t393 20.5v98q0 133 -69 208t-192 75q-171 0 -243 -166q-23 -52 -74 -29q-56 24 -35 74q101 232 354 232q115 0 193.5 -42.5t138.5 -131.5q53 84 141 129t201 45q110 0 193.5 -37t131.5 -101.5t71.5 -143.5t23.5 -173v-88q0 -84 -92 -84 h-614v-96q0 -153 74.5 -237.5t224.5 -84.5q203 0 272 141q25 52 78 31q59 -22 37 -76q-90 -206 -387 -206q-126 0 -219.5 46.5t-143.5 131.5q-36 -32 -67 -55.5t-83 -55.5t-114 -49.5t-127 -17.5q-149 0 -245.5 87t-96.5 236zM207 307q0 -93 65 -154t164 -61q174 0 332 162 q-20 73 -20 195v100q-297 11 -419 -40t-122 -187v-15zM877 614h581v101q0 149 -82.5 231t-212.5 82q-129 0 -207.5 -83.5t-78.5 -237.5v-93z" />
<glyph unicode="&#xe7;" horiz-adv-x="974" d="M111 408v307q0 203 116 312.5t299 109.5q136 0 232.5 -66t134.5 -174q19 -53 -39 -76q-61 -21 -78 33q-24 74 -89 123t-163 49q-129 0 -208.5 -83t-79.5 -247v-272q0 -164 76.5 -248t209.5 -84q191 0 254 154q20 53 78 30q56 -20 37 -73q-81 -205 -336 -219v-103 q77 -1 122.5 -43.5t45.5 -101.5v-15q0 -64 -51 -110.5t-146 -46.5q-64 0 -129 32.5t-24 73.5q25 25 55 4q46 -32 98 -32q50 0 76.5 21.5t26.5 60.5v8q0 42 -32 64t-85 22q-45 0 -45 32v134q-161 14 -258.5 123t-97.5 301z" />
<glyph unicode="&#xe8;" horiz-adv-x="1038" d="M111 406v317q0 188 117 301t298 113q195 0 307.5 -113t112.5 -326v-104q0 -84 -92 -84h-614v-98q0 -148 74.5 -234t222.5 -86q203 0 272 141q25 52 78 31q59 -22 37 -76q-90 -206 -387 -206q-202 0 -314 114.5t-112 309.5zM240 614h579v91q0 155 -77 238t-218 83 q-125 0 -204.5 -80t-79.5 -227v-105zM257 1561.5q11 23.5 46 23.5q27 0 42.5 -8t29.5 -29l160 -235q15 -23 4.5 -39.5t-39.5 -16.5q-31 0 -60 37l-172 215q-22 29 -11 52.5z" />
<glyph unicode="&#xe9;" horiz-adv-x="1038" d="M111 406v317q0 188 117 301t298 113q195 0 307.5 -113t112.5 -326v-104q0 -84 -92 -84h-614v-98q0 -148 74.5 -234t222.5 -86q203 0 272 141q25 52 78 31q59 -22 37 -76q-90 -206 -387 -206q-202 0 -314 114.5t-112 309.5zM240 614h579v91q0 155 -77 238t-218 83 q-125 0 -204.5 -80t-79.5 -227v-105zM496.5 1276q-6.5 16 7.5 35l155 233q18 26 34.5 33.5t45.5 7.5q39 0 49.5 -22t-10.5 -45l-184 -228q-24 -30 -62 -30q-29 0 -35.5 16z" />
<glyph unicode="&#xea;" horiz-adv-x="1038" d="M111 406v317q0 188 117 301t298 113q195 0 307.5 -113t112.5 -326v-104q0 -84 -92 -84h-614v-98q0 -148 74.5 -234t222.5 -86q203 0 272 141q25 52 78 31q59 -22 37 -76q-90 -206 -387 -206q-202 0 -314 114.5t-112 309.5zM240 614h579v91q0 155 -77 238t-218 83 q-125 0 -204.5 -80t-79.5 -227v-105zM326 1275q-9 15 4 34l147 215q20 32 68 32q50 0 73 -36l142 -211q13 -19 4 -34t-39 -15q-28 0 -44 9.5t-32 33.5l-102 172l-107 -172q-16 -24 -31.5 -33.5t-43.5 -9.5q-30 0 -39 15z" />
<glyph unicode="&#xeb;" horiz-adv-x="1038" d="M111 406v317q0 188 117 301t298 113q195 0 307.5 -113t112.5 -326v-104q0 -84 -92 -84h-614v-98q0 -148 74.5 -234t222.5 -86q203 0 272 141q25 52 78 31q59 -22 37 -76q-90 -206 -387 -206q-202 0 -314 114.5t-112 309.5zM240 614h579v91q0 155 -77 238t-218 83 q-125 0 -204.5 -80t-79.5 -227v-105zM293 1348v116q0 60 63 60q64 0 64 -60v-116q0 -60 -64 -60q-63 0 -63 60zM637 1348v116q0 60 63 60q64 0 64 -60v-116q0 -60 -64 -60q-63 0 -63 60z" />
<glyph unicode="&#xec;" horiz-adv-x="440" d="M-38 1563.5q11 23.5 46 23.5q27 0 42.5 -8t29.5 -29l160 -235q15 -23 4.5 -39t-39.5 -16q-32 0 -60 36l-172 215q-22 29 -11 52.5zM158 51v1016q0 59 63 59q64 0 64 -59v-1016q0 -59 -64 -59q-63 0 -63 59z" />
<glyph unicode="&#xed;" horiz-adv-x="440" d="M158 51v1016q0 59 63 59q64 0 64 -59v-1016q0 -59 -64 -59q-63 0 -63 59zM183 1276q-7 16 7 35l156 233q18 26 34.5 33.5t45.5 7.5q39 0 49.5 -22t-10.5 -45l-184 -228q-24 -30 -62 -30q-29 0 -36 16z" />
<glyph unicode="&#xee;" horiz-adv-x="440" d="M0 1275q-9 15 4 34l148 215q12 19 26 25.5t41 6.5q51 0 74 -36l141 -211q13 -19 4 -34t-39 -15q-28 0 -43.5 9.5t-31.5 33.5l-103 172l-106 -172q-16 -24 -32 -33.5t-44 -9.5q-30 0 -39 15zM158 51v1016q0 59 63 59q64 0 64 -59v-1016q0 -59 -64 -59q-63 0 -63 59z" />
<glyph unicode="&#xef;" horiz-adv-x="458" d="M-14 1339v117q0 60 63 60q64 0 64 -60v-117q0 -59 -64 -59q-63 0 -63 59zM158 51v1016q0 59 63 59q64 0 64 -59v-1016q0 -59 -64 -59q-63 0 -63 59zM330 1339v117q0 60 63 60q64 0 64 -60v-117q0 -59 -64 -59q-63 0 -63 59z" />
<glyph unicode="&#xf0;" horiz-adv-x="1150" d="M113 401v224q0 187 120 306.5t332 119.5q40 0 78 -6.5t67 -17.5t54.5 -24t44 -26t31.5 -23.5t20 -17.5l8 -8q-18 83 -65.5 163.5t-140.5 174.5l-72 -76q-36 -38 -74 0q-40 37 -6 74l74 77q-16 15 -49.5 43.5t-45.5 38.5q-47 37 -10 86q40 53 86 13q13 -11 103 -90l80 84 q35 37 75 0q38 -38 4 -74l-82 -86q145 -151 210 -312t65 -403v-231q-1 -103 -42 -188t-107.5 -137.5t-145.5 -81t-160 -28.5q-217 0 -334.5 119.5t-117.5 306.5zM240 414q0 -87 26.5 -152t73 -102.5t103 -55.5t122.5 -18q128 0 228 91t100 243v201q0 142 -95 228.5 t-231 86.5q-141 0 -234 -84.5t-93 -243.5v-194z" />
<glyph unicode="&#xf1;" horiz-adv-x="1101" d="M158 51v1018q0 57 61 57q62 0 62 -57v-131q67 91 159.5 145t204.5 54q158 0 237 -96.5t79 -264.5v-725q0 -59 -64 -59q-63 0 -63 59v682q0 67 -10 117t-34 91t-69 62t-111 21q-98 0 -187.5 -65.5t-137.5 -161.5v-746q0 -59 -64 -59q-63 0 -63 59zM270 1352q20 55 68 98 t111 43q34 0 69.5 -15.5t60.5 -34.5t55 -34.5t54 -15.5q64 0 98 75q19 40 62 25q40 -18 24 -57q-22 -55 -70.5 -98.5t-111.5 -43.5q-37 0 -73 16t-59.5 34.5t-51.5 34.5t-51 16q-65 0 -99 -78q-20 -38 -61 -21q-41 14 -25 56z" />
<glyph unicode="&#xf2;" horiz-adv-x="1091" d="M111 395v320q0 196 116.5 309t317.5 113q210 0 323 -111.5t113 -310.5v-312q0 -195 -115.5 -308t-320.5 -113t-319.5 109.5t-114.5 303.5zM240 414q0 -322 305 -322q147 0 228 82t81 248v276q0 165 -79.5 246.5t-229.5 81.5q-143 0 -224 -82t-81 -246v-284zM319 1555.5 q11 23.5 46 23.5q27 0 42 -8t29 -29l160 -235q15 -23 4.5 -39.5t-39.5 -16.5q-30 0 -59 37l-172 215q-22 29 -11 52.5z" />
<glyph unicode="&#xf3;" horiz-adv-x="1091" d="M111 395v320q0 196 116.5 309t317.5 113q210 0 323 -111.5t113 -310.5v-312q0 -195 -115.5 -308t-320.5 -113t-319.5 109.5t-114.5 303.5zM240 414q0 -322 305 -322q147 0 228 82t81 248v276q0 165 -79.5 246.5t-229.5 81.5q-143 0 -224 -82t-81 -246v-284zM513 1276 q-7 16 7 35l156 233q18 26 34.5 33.5t45.5 7.5q39 0 49.5 -22t-10.5 -45l-185 -228q-15 -18 -27.5 -24t-33.5 -6q-29 0 -36 16z" />
<glyph unicode="&#xf4;" horiz-adv-x="1091" d="M111 395v320q0 196 116.5 309t317.5 113q210 0 323 -111.5t113 -310.5v-312q0 -195 -115.5 -308t-320.5 -113t-319.5 109.5t-114.5 303.5zM240 414q0 -322 305 -322q147 0 228 82t81 248v276q0 165 -79.5 246.5t-229.5 81.5q-143 0 -224 -82t-81 -246v-284zM326 1275 q-9 15 4 34l147 215q20 32 68 32q50 0 73 -36l142 -211q13 -19 4 -34t-39 -15q-28 0 -44 9.5t-32 33.5l-102 172l-107 -172q-16 -24 -31.5 -33.5t-43.5 -9.5q-30 0 -39 15z" />
<glyph unicode="&#xf5;" horiz-adv-x="1091" d="M111 395v320q0 196 116.5 309t317.5 113q210 0 323 -111.5t113 -310.5v-312q0 -195 -115.5 -308t-320.5 -113t-319.5 109.5t-114.5 303.5zM240 414q0 -322 305 -322q147 0 228 82t81 248v276q0 165 -79.5 246.5t-229.5 81.5q-143 0 -224 -82t-81 -246v-284zM250 1352 q20 55 67.5 98t110.5 43q42 0 87 -25t84.5 -50t68.5 -25q64 0 98 75q19 39 61 25q41 -18 25 -57q-22 -55 -70.5 -98.5t-111.5 -43.5q-37 0 -73 16t-59.5 34.5t-52 34.5t-51.5 16q-64 0 -98 -78q-20 -38 -62 -21q-40 14 -24 56z" />
<glyph unicode="&#xf6;" horiz-adv-x="1091" d="M111 395v320q0 196 116.5 309t317.5 113q210 0 323 -111.5t113 -310.5v-312q0 -195 -115.5 -308t-320.5 -113t-319.5 109.5t-114.5 303.5zM240 414q0 -322 305 -322q147 0 228 82t81 248v276q0 165 -79.5 246.5t-229.5 81.5q-143 0 -224 -82t-81 -246v-284zM307 1341v117 q0 60 64 60q63 0 63 -60v-117q0 -59 -63 -59q-64 0 -64 59zM651 1341v117q0 60 64 60q63 0 63 -60v-117q0 -59 -63 -59q-64 0 -64 59z" />
<glyph unicode="&#xf7;" d="M90 635q0 55 51 55h946q52 0 52 -55t-52 -55h-946q-51 0 -51 55zM551 188v162q0 60 63 60q64 0 64 -60v-162q0 -59 -64 -59q-63 0 -63 59zM551 920v161q0 60 63 60q64 0 64 -60v-161q0 -60 -64 -60q-63 0 -63 60z" />
<glyph unicode="&#xf8;" horiz-adv-x="1091" d="M111 395v320q0 196 116.5 309t317.5 113q135 0 241 -56l41 72q21 43 78 43q34 0 45 -16t-2 -41l-69 -125q102 -111 102 -299v-312q0 -195 -115.5 -308t-320.5 -113q-131 0 -221 43l-43 -78q-21 -43 -78 -43q-67 0 -43 57l69 125q-118 109 -118 309zM240 414 q0 -136 53 -213l436 778q-74 47 -184 47q-143 0 -224 -82t-81 -246v-284zM381 125q65 -33 164 -33q147 0 228 82t81 248v276q0 117 -43 195z" />
<glyph unicode="&#xf9;" horiz-adv-x="1105" d="M141 315v752q0 59 64 59q63 0 63 -59v-741q0 -107 53.5 -167.5t143.5 -60.5q97 0 190 49.5t166 141.5v778q0 59 64 59q63 0 63 -59v-1018q0 -57 -61 -57q-62 0 -62 57v125q-69 -79 -168.5 -132.5t-218.5 -53.5q-138 0 -217.5 85.5t-79.5 241.5zM296 1563.5 q11 23.5 46 23.5q27 0 42.5 -8t29.5 -29l159 -235q15 -23 5 -39t-39 -16q-32 0 -60 36l-172 215q-22 29 -11 52.5z" />
<glyph unicode="&#xfa;" horiz-adv-x="1105" d="M141 315v752q0 59 64 59q63 0 63 -59v-741q0 -107 53.5 -167.5t143.5 -60.5q97 0 190 49.5t166 141.5v778q0 59 64 59q63 0 63 -59v-1018q0 -57 -61 -57q-62 0 -62 57v125q-69 -79 -168.5 -132.5t-218.5 -53.5q-138 0 -217.5 85.5t-79.5 241.5zM511 1276q-7 16 7 35 l156 233q18 26 34.5 33.5t45.5 7.5q39 0 49.5 -22t-10.5 -45l-185 -228q-15 -18 -27.5 -24t-33.5 -6q-29 0 -36 16z" />
<glyph unicode="&#xfb;" horiz-adv-x="1105" d="M141 315v752q0 59 64 59q63 0 63 -59v-741q0 -107 53.5 -167.5t143.5 -60.5q97 0 190 49.5t166 141.5v778q0 59 64 59q63 0 63 -59v-1018q0 -57 -61 -57q-62 0 -62 57v125q-69 -79 -168.5 -132.5t-218.5 -53.5q-138 0 -217.5 85.5t-79.5 241.5zM336 1275q-9 15 4 34 l147 215q20 32 68 32q51 0 74 -36l141 -211q13 -19 4 -34t-39 -15q-28 0 -44 9.5t-32 33.5l-102 172l-106 -172q-16 -24 -32 -33.5t-44 -9.5q-30 0 -39 15z" />
<glyph unicode="&#xfc;" horiz-adv-x="1105" d="M141 315v752q0 59 64 59q63 0 63 -59v-741q0 -107 53.5 -167.5t143.5 -60.5q97 0 190 49.5t166 141.5v778q0 59 64 59q63 0 63 -59v-1018q0 -57 -61 -57q-62 0 -62 57v125q-69 -79 -168.5 -132.5t-218.5 -53.5q-138 0 -217.5 85.5t-79.5 241.5zM319 1341v117q0 60 64 60 q63 0 63 -60v-117q0 -59 -63 -59q-64 0 -64 59zM664 1341v117q0 60 63 60q64 0 64 -60v-117q0 -59 -64 -59q-63 0 -63 59z" />
<glyph unicode="&#xfd;" horiz-adv-x="878" d="M12 1051q-11 34 3.5 54.5t52.5 20.5q30 0 47 -12.5t26 -40.5l305 -907l293 897q19 63 78 63q37 0 51 -19.5t2 -53.5l-389 -1110q-81 -232 -266 -363q-26 -19 -46 -16t-40 28q-19 22 -16 47.5t26 38.5q81 47 139 127.5t99 204.5zM398.5 1271.5q-6.5 16.5 7.5 35.5l155 233 q18 26 34.5 33.5t45.5 7.5q39 0 49.5 -22.5t-10.5 -45.5l-184 -227q-25 -31 -62 -31q-29 0 -35.5 16.5z" />
<glyph unicode="&#xfe;" horiz-adv-x="1114" d="M158 -377v1866q0 59 63 59q64 0 64 -59v-565q18 34 48 68.5t72.5 68.5t101.5 55t122 21q97 0 170 -31.5t116.5 -90t64.5 -135t21 -171.5v-291q0 -204 -110.5 -320t-276.5 -116q-121 0 -203.5 46t-125.5 117v-522q0 -59 -64 -59q-63 0 -63 59zM285 377q0 -134 85.5 -209.5 t217.5 -75.5t209 84t77 254v262q0 330 -262 330q-127 0 -227 -100.5t-100 -241.5v-303z" />
<glyph unicode="&#xff;" horiz-adv-x="878" d="M12 1051q-11 34 3.5 54.5t52.5 20.5q30 0 47 -12.5t26 -40.5l305 -907l293 897q19 63 78 63q37 0 51 -19.5t2 -53.5l-389 -1110q-81 -232 -266 -363q-26 -19 -46 -16t-40 28q-19 22 -16 47.5t26 38.5q81 47 139 127.5t99 204.5zM231 1341v117q0 60 64 60q63 0 63 -60 v-117q0 -59 -63 -59q-64 0 -64 59zM575 1341v117q0 60 64 60q63 0 63 -60v-117q0 -59 -63 -59q-64 0 -64 59z" />
<glyph unicode="&#x152;" horiz-adv-x="1912" d="M158 430v627q0 213 140 334.5t376 121.5q128 0 230.5 -49t152.5 -133v82q0 84 94 84h608q56 0 56 -61q0 -58 -56 -58h-567v-553h516q55 0 55 -59q0 -29 -12.5 -43t-42.5 -14h-516v-592h569q56 0 56 -58q0 -59 -56 -59h-610q-94 0 -94 84v78q-57 -87 -146 -134.5 t-237 -47.5q-237 0 -376.5 119t-139.5 331zM293 436q0 -157 104 -247.5t277 -90.5q174 0 278.5 90.5t104.5 247.5v631q-4 152 -108 239t-275 87q-174 0 -277.5 -90.5t-103.5 -249.5v-617z" />
<glyph unicode="&#x153;" horiz-adv-x="1781" d="M113 393v322q0 188 118.5 305t317.5 117q143 0 230 -48t143 -139q53 87 144 137t204 50q208 0 314 -128.5t106 -369.5v-45q0 -84 -93 -84h-614v-115q2 -136 79 -219.5t218 -83.5q203 0 272 141q25 52 78 31q59 -22 37 -76q-90 -206 -385 -206q-258 0 -364 180 q-53 -87 -148 -133.5t-223 -46.5q-205 0 -319.5 108.5t-114.5 302.5zM240 412q0 -164 80.5 -242t226.5 -78q148 0 228.5 82t80.5 248v289q-15 313 -305 313q-149 0 -230 -81t-81 -245v-286zM983 614h582v95q0 150 -83 234.5t-212 84.5q-125 0 -206 -80.5t-81 -226.5v-107z " />
<glyph unicode="&#x178;" horiz-adv-x="1062" d="M32.5 1478.5q16.5 24.5 51.5 24.5q49 0 72 -41l376 -712l377 712q23 41 72 41q35 0 50.5 -26.5t-3.5 -63.5l-430 -788v-576q0 -63 -68 -63q-67 0 -67 63v574l-428 794q-19 37 -2.5 61.5zM297 1747v117q0 59 63 59q64 0 64 -59v-117q0 -59 -64 -59q-63 0 -63 59zM641 1747 v117q0 59 64 59q63 0 63 -59v-117q0 -59 -63 -59q-64 0 -64 59z" />
<glyph unicode="&#x2c6;" horiz-adv-x="813" d="M186 1275q-9 15 4 34l148 215q20 32 68 32q50 0 73 -36l142 -211q13 -19 4 -34t-39 -15q-28 0 -44 9.5t-32 33.5l-102 172l-107 -172q-16 -24 -32 -33.5t-44 -9.5q-30 0 -39 15z" />
<glyph unicode="&#x2dc;" horiz-adv-x="962" d="M178 1352q20 55 67.5 98t110.5 43q42 0 87 -25t84.5 -50t68.5 -25q64 0 98 75q19 40 62 25q40 -18 24 -57q-22 -55 -70.5 -98.5t-111.5 -43.5q-37 0 -73 16t-59.5 34.5t-52 34.5t-51.5 16q-64 0 -98 -78q-20 -38 -61 -21q-41 14 -25 56z" />
<glyph unicode="&#x2000;" horiz-adv-x="990" />
<glyph unicode="&#x2001;" horiz-adv-x="1980" />
<glyph unicode="&#x2002;" horiz-adv-x="990" />
<glyph unicode="&#x2003;" horiz-adv-x="1980" />
<glyph unicode="&#x2004;" horiz-adv-x="660" />
<glyph unicode="&#x2005;" horiz-adv-x="495" />
<glyph unicode="&#x2006;" horiz-adv-x="330" />
<glyph unicode="&#x2007;" horiz-adv-x="330" />
<glyph unicode="&#x2008;" horiz-adv-x="247" />
<glyph unicode="&#x2009;" horiz-adv-x="396" />
<glyph unicode="&#x200a;" horiz-adv-x="110" />
<glyph unicode="&#x2010;" horiz-adv-x="890" d="M115 610q0 56 51 56h559q51 0 51 -56q0 -53 -51 -53h-559q-51 0 -51 53z" />
<glyph unicode="&#x2011;" horiz-adv-x="890" d="M115 610q0 56 51 56h559q51 0 51 -56q0 -53 -51 -53h-559q-51 0 -51 53z" />
<glyph unicode="&#x2012;" horiz-adv-x="890" d="M115 610q0 56 51 56h559q51 0 51 -56q0 -53 -51 -53h-559q-51 0 -51 53z" />
<glyph unicode="&#x2013;" horiz-adv-x="1105" d="M115 610q0 56 51 56h774q51 0 51 -56q0 -53 -51 -53h-774q-51 0 -51 53z" />
<glyph unicode="&#x2014;" horiz-adv-x="2129" d="M115 610q0 56 51 56h1796q51 0 51 -56q0 -53 -51 -53h-1796q-51 0 -51 53z" />
<glyph unicode="&#x2018;" horiz-adv-x="430" d="M139 1120q0 272 158 418q13 12 29.5 11t26.5 -12t12.5 -25.5t-11.5 -30.5q-57 -61 -72.5 -133t-15.5 -228q0 -59 -63 -59q-64 0 -64 59z" />
<glyph unicode="&#x2019;" horiz-adv-x="438" d="M72.5 1081.5q-2.5 14.5 11.5 30.5q57 61 72.5 133t15.5 228q0 59 64 59q63 0 63 -59q0 -272 -158 -418q-13 -12 -29.5 -11t-26.5 12t-12.5 25.5z" />
<glyph unicode="&#x201a;" horiz-adv-x="374" d="M51.5 -190q-5.5 19 9.5 40q57 61 73 133.5t16 227.5q0 59 63 59t63 -59q0 -273 -157 -418q-18 -16 -40 -9t-27.5 26z" />
<glyph unicode="&#x201c;" horiz-adv-x="741" d="M139 1120q0 272 158 418q13 12 29.5 11t26.5 -12t12.5 -25.5t-11.5 -30.5q-57 -61 -72.5 -133t-15.5 -228q0 -59 -63 -59q-64 0 -64 59zM449 1120q0 273 157 418q13 12 30 11t27 -11.5t12.5 -25.5t-11.5 -31q-57 -61 -73 -133.5t-16 -227.5q0 -59 -63 -59q-32 0 -47.5 14 t-15.5 45z" />
<glyph unicode="&#x201d;" horiz-adv-x="743" d="M66.5 1085.5q-2.5 14.5 11.5 30.5q57 61 72.5 133t15.5 228q0 59 63 59q64 0 64 -59q0 -272 -158 -418q-13 -12 -29.5 -11t-26.5 12t-12.5 25.5zM377.5 1085.5q-2.5 14.5 11.5 30.5q30 32 47.5 64t26.5 77.5t11.5 92t2.5 127.5q0 59 64 59q32 0 47.5 -14t15.5 -45 q0 -272 -158 -418q-13 -12 -29.5 -11t-26.5 12t-12.5 25.5z" />
<glyph unicode="&#x201e;" horiz-adv-x="688" d="M51.5 -190q-5.5 19 9.5 40q57 61 73 133.5t16 227.5q0 59 63 59t63 -59q0 -273 -157 -418q-18 -16 -40 -9t-27.5 26zM365.5 -180.5q-2.5 14.5 11.5 30.5q57 61 72.5 133t15.5 228q0 59 63 59q64 0 64 -59q0 -272 -158 -418q-13 -12 -29.5 -11t-26.5 12t-12.5 25.5z" />
<glyph unicode="&#x2022;" horiz-adv-x="733" d="M139 651q0 94 67 161t161 67q100 0 163.5 -64t63.5 -164q0 -94 -66.5 -160.5t-160.5 -66.5q-100 0 -164 63.5t-64 163.5z" />
<glyph unicode="&#x2026;" horiz-adv-x="1208" d="M135 51v162q0 59 64 59q63 0 63 -59v-162q0 -59 -63 -59q-64 0 -64 59zM539 51v162q0 59 63 59q64 0 64 -59v-162q0 -59 -64 -59q-63 0 -63 59zM944 51v162q0 59 64 59q63 0 63 -59v-162q0 -59 -63 -59q-64 0 -64 59z" />
<glyph unicode="&#x202f;" horiz-adv-x="396" />
<glyph unicode="&#x2039;" horiz-adv-x="645" d="M135 596q0 28 19 55l274 391q34 48 86 9q48 -36 14 -86l-256 -367l256 -362q34 -50 -14 -86q-52 -39 -86 8l-274 389q-19 27 -19 49z" />
<glyph unicode="&#x203a;" horiz-adv-x="645" d="M123 188.5q-4 19.5 14 47.5l256 366l-256 363q-18 28 -14 47.5t29 38.5q52 39 86 -9l274 -389q18 -26 18 -49q0 -29 -18 -55l-274 -391q-34 -47 -86 -8q-25 19 -29 38.5z" />
<glyph unicode="&#x205f;" horiz-adv-x="495" />
<glyph unicode="&#x20ac;" d="M63 625q0 55 52 55h123v164h-123q-52 0 -52 53q0 55 52 55h123v95q0 212 127 339t344 130q165 0 279.5 -74.5t168.5 -216.5q22 -58 -41 -82q-63 -22 -84 35q-40 107 -122.5 162t-200.5 55q-174 0 -256 -95t-82 -264v-84h399q51 0 51 -55q0 -27 -12 -39t-39 -12h-399v-166 h399q51 0 51 -55q0 -52 -51 -52h-397v-98q3 -191 81 -284.5t251 -90.5q128 0 211.5 61.5t123.5 160.5q21 57 84 34q63 -24 41 -82q-45 -122 -166.5 -208t-289.5 -86q-223 0 -347 123t-124 362v106h-123q-52 0 -52 54z" />
<glyph unicode="&#x2122;" horiz-adv-x="1056" d="M27 1460q0 37 32 37h357q33 0 33 -37q0 -35 -33 -35h-142v-462q0 -20 -9 -28.5t-29 -8.5q-39 0 -39 37v462h-138q-32 0 -32 35zM518 961v487q0 55 55 55q36 0 51.5 -11.5t24.5 -43.5l115 -420h2l106 420q7 32 23.5 43.5t52.5 11.5q58 0 58 -55v-487q0 -35 -39 -35t-39 35 l4 446h-2l-121 -440q-6 -21 -16 -29t-29 -8q-35 0 -45 37l-127 444h-2l4 -281v-169q0 -35 -39 -35q-37 0 -37 35z" />
<glyph unicode="&#xe000;" horiz-adv-x="1126" d="M0 0v1126h1126v-1126h-1126z" />
</font>
</defs>
</svg>
